<?xml version="1.0" encoding="UTF-8" standalone="no"?>
<!DOCTYPE svg PUBLIC "-//W3C//DTD SVG 1.1//EN"
 "http://www.w3.org/Graphics/SVG/1.1/DTD/svg11.dtd">
<!-- Generated by graphviz version 2.43.0 (0)
 -->
<!-- Title: %3 Pages: 1 -->
<svg width="1083pt" height="419pt"
 viewBox="0.00 0.00 1083.28 419.48" xmlns="http://www.w3.org/2000/svg" xmlns:xlink="http://www.w3.org/1999/xlink">
<g id="graph0" class="graph" transform="scale(1 1) rotate(0) translate(36 383.48)">
<title>%3</title>
<polygon fill="white" stroke="transparent" points="-36,36 -36,-383.48 1047.28,-383.48 1047.28,36 -36,36"/>
<text text-anchor="middle" x="505.64" y="-332.28" font-family="Times,serif" font-size="14.00">Sweep&#39;s Plan &amp; Progress</text>
<!-- start -->
<g id="node1" class="node">
<title>start</title>
</g>
<!-- 68917235&#45;b41d&#45;4be5&#45;9515&#45;3389b03d4f89 -->
<g id="node3" class="node">
<title>68917235&#45;b41d&#45;4be5&#45;9515&#45;3389b03d4f89</title>
<ellipse fill="green" stroke="black" cx="370.78" cy="-281.61" rx="176.55" ry="26.74"/>
<text text-anchor="middle" x="370.78" y="-285.41" font-family="Times,serif" font-size="14.00">✓ Modify</text>
<text text-anchor="middle" x="370.78" y="-270.41" font-family="Times,serif" font-size="14.00">src/components/Testimonials.tsx</text>
</g>
<!-- start&#45;&gt;68917235&#45;b41d&#45;4be5&#45;9515&#45;3389b03d4f89 -->
<g id="edge7" class="edge">
<title>start&#45;&gt;68917235&#45;b41d&#45;4be5&#45;9515&#45;3389b03d4f89</title>
<path fill="none" stroke="black" d="M139.44,-281.61C142.97,-281.61 160.21,-281.61 183.82,-281.61"/>
<polygon fill="black" stroke="black" points="183.92,-285.11 193.92,-281.61 183.92,-278.11 183.92,-285.11"/>
<text text-anchor="middle" x="166.64" y="-288.41" font-family="Times,serif" font-size="14.00">Start</text>
</g>
<!-- end -->
<g id="node2" class="node">
<title>end</title>
</g>
<!-- 3e097cd4&#45;5da2&#45;425c&#45;a0af&#45;749015c3131d -->
<g id="node4" class="node">
<title>3e097cd4&#45;5da2&#45;425c&#45;a0af&#45;749015c3131d</title>
<ellipse fill="white" stroke="black" cx="765.78" cy="-281.61" rx="182.37" ry="26.74"/>
<text text-anchor="middle" x="765.78" y="-285.41" font-family="Times,serif" font-size="14.00">▶ Create</text>
<text text-anchor="middle" x="765.78" y="-270.41" font-family="Times,serif" font-size="14.00">src/__tests__/Testimonials.test.tsx</text>
</g>
<!-- 68917235&#45;b41d&#45;4be5&#45;9515&#45;3389b03d4f89&#45;&gt;3e097cd4&#45;5da2&#45;425c&#45;a0af&#45;749015c3131d -->
<g id="edge5" class="edge">
<title>68917235&#45;b41d&#45;4be5&#45;9515&#45;3389b03d4f89&#45;&gt;3e097cd4&#45;5da2&#45;425c&#45;a0af&#45;749015c3131d</title>
<path fill="none" stroke="black" d="M547.83,-281.61C556.21,-281.61 564.58,-281.61 572.95,-281.61"/>
<polygon fill="black" stroke="black" points="573.16,-285.11 583.16,-281.61 573.16,-278.11 573.16,-285.11"/>
</g>
<!-- bf21c9df&#45;f016&#45;459c&#45;9920&#45;c302cebc61d5 -->
<g id="node5" class="node">
<title>bf21c9df&#45;f016&#45;459c&#45;9920&#45;c302cebc61d5</title>
<polygon fill="red" stroke="black" points="301.78,-217.74 51.78,-217.74 51.78,-179.74 301.78,-179.74 301.78,-217.74"/>
<text text-anchor="middle" x="176.78" y="-202.54" font-family="Times,serif" font-size="14.00">✗ Check</text>
<text text-anchor="middle" x="176.78" y="-187.54" font-family="Times,serif" font-size="14.00">src/components/Testimonials.tsx</text>
</g>
<!-- 68917235&#45;b41d&#45;4be5&#45;9515&#45;3389b03d4f89&#45;&gt;bf21c9df&#45;f016&#45;459c&#45;9920&#45;c302cebc61d5 -->
<g id="edge1" class="edge">
<title>68917235&#45;b41d&#45;4be5&#45;9515&#45;3389b03d4f89&#45;&gt;bf21c9df&#45;f016&#45;459c&#45;9920&#45;c302cebc61d5</title>
<path fill="none" stroke="black" stroke-dasharray="5,2" d="M312.31,-256.24C285.99,-245.27 255.16,-232.41 229.56,-221.74"/>
<polygon fill="black" stroke="black" points="230.6,-218.38 220.02,-217.77 227.9,-224.84 230.6,-218.38"/>
</g>
<!-- b7bd1dc3&#45;a9c0&#45;4c17&#45;b88d&#45;f6eadc220a50 -->
<g id="node6" class="node">
<title>b7bd1dc3&#45;a9c0&#45;4c17&#45;b88d&#45;f6eadc220a50</title>
<polygon fill="white" stroke="black" points="569.78,-217.74 319.78,-217.74 319.78,-179.74 569.78,-179.74 569.78,-217.74"/>
<text text-anchor="middle" x="444.78" y="-202.54" font-family="Times,serif" font-size="14.00">▶ Check</text>
<text text-anchor="middle" x="444.78" y="-187.54" font-family="Times,serif" font-size="14.00">src/components/Testimonials.tsx</text>
</g>
<!-- 68917235&#45;b41d&#45;4be5&#45;9515&#45;3389b03d4f89&#45;&gt;b7bd1dc3&#45;a9c0&#45;4c17&#45;b88d&#45;f6eadc220a50 -->
<g id="edge4" class="edge">
<title>68917235&#45;b41d&#45;4be5&#45;9515&#45;3389b03d4f89&#45;&gt;b7bd1dc3&#45;a9c0&#45;4c17&#45;b88d&#45;f6eadc220a50</title>
<path fill="none" stroke="black" stroke-dasharray="5,2" d="M394.6,-254.58C403.18,-245.2 412.85,-234.63 421.4,-225.29"/>
<polygon fill="black" stroke="black" points="424.09,-227.53 428.26,-217.79 418.93,-222.81 424.09,-227.53"/>
</g>
<!-- 3e097cd4&#45;5da2&#45;425c&#45;a0af&#45;749015c3131d&#45;&gt;end -->
<g id="edge8" class="edge">
<title>3e097cd4&#45;5da2&#45;425c&#45;a0af&#45;749015c3131d&#45;&gt;end</title>
<path fill="none" stroke="black" d="M948.32,-281.61C970.35,-281.61 988.94,-281.61 999.96,-281.61"/>
<polygon fill="black" stroke="black" points="1000.09,-285.11 1010.09,-281.61 1000.09,-278.11 1000.09,-285.11"/>
<text text-anchor="middle" x="979.24" y="-288.41" font-family="Times,serif" font-size="14.00">Finish</text>
</g>
<!-- a26aeefb&#45;6a6e&#45;441e&#45;a79b&#45;c2beb0109e87 -->
<g id="node7" class="node">
<title>a26aeefb&#45;6a6e&#45;441e&#45;a79b&#45;c2beb0109e87</title>
<polygon fill="white" stroke="black" points="894.78,-217.74 636.78,-217.74 636.78,-179.74 894.78,-179.74 894.78,-217.74"/>
<text text-anchor="middle" x="765.78" y="-202.54" font-family="Times,serif" font-size="14.00">▶ Check</text>
<text text-anchor="middle" x="765.78" y="-187.54" font-family="Times,serif" font-size="14.00">src/__tests__/Testimonials.test.tsx</text>
</g>
<!-- 3e097cd4&#45;5da2&#45;425c&#45;a0af&#45;749015c3131d&#45;&gt;a26aeefb&#45;6a6e&#45;441e&#45;a79b&#45;c2beb0109e87 -->
<g id="edge6" class="edge">
<title>3e097cd4&#45;5da2&#45;425c&#45;a0af&#45;749015c3131d&#45;&gt;a26aeefb&#45;6a6e&#45;441e&#45;a79b&#45;c2beb0109e87</title>
<path fill="none" stroke="black" stroke-dasharray="5,2" d="M765.78,-254.58C765.78,-246.04 765.78,-236.52 765.78,-227.84"/>
<polygon fill="black" stroke="black" points="769.28,-227.79 765.78,-217.79 762.28,-227.79 769.28,-227.79"/>
</g>
<!-- 1f7e6821&#45;c33e&#45;4f61&#45;b735&#45;c4358e184381 -->
<g id="node8" class="node">
<title>1f7e6821&#45;c33e&#45;4f61&#45;b735&#45;c4358e184381</title>
<ellipse fill="green" stroke="black" cx="176.78" cy="-101.87" rx="176.55" ry="26.74"/>
<text text-anchor="middle" x="176.78" y="-105.67" font-family="Times,serif" font-size="14.00">✓ Modify</text>
<text text-anchor="middle" x="176.78" y="-90.67" font-family="Times,serif" font-size="14.00">src/components/Testimonials.tsx</text>
</g>
<!-- bf21c9df&#45;f016&#45;459c&#45;9920&#45;c302cebc61d5&#45;&gt;1f7e6821&#45;c33e&#45;4f61&#45;b735&#45;c4358e184381 -->
<g id="edge2" class="edge">
<title>bf21c9df&#45;f016&#45;459c&#45;9920&#45;c302cebc61d5&#45;&gt;1f7e6821&#45;c33e&#45;4f61&#45;b735&#45;c4358e184381</title>
<path fill="none" stroke="black" d="M176.78,-179.45C176.78,-168.03 176.78,-152.95 176.78,-139.18"/>
<polygon fill="black" stroke="black" points="180.28,-139 176.78,-129 173.28,-139 180.28,-139"/>
<text text-anchor="middle" x="277.78" y="-150.54" font-family="Times,serif" font-size="14.00">Additional changes required</text>
</g>
<!-- dbfd25a5&#45;d6c7&#45;4f15&#45;9bb4&#45;0bb5bbacf435 -->
<g id="node9" class="node">
<title>dbfd25a5&#45;d6c7&#45;4f15&#45;9bb4&#45;0bb5bbacf435</title>
<polygon fill="yellow" stroke="black" points="301.78,-38 51.78,-38 51.78,0 301.78,0 301.78,-38"/>
<text text-anchor="middle" x="176.78" y="-22.8" font-family="Times,serif" font-size="14.00">⋯ Check</text>
<text text-anchor="middle" x="176.78" y="-7.8" font-family="Times,serif" font-size="14.00">src/components/Testimonials.tsx</text>
</g>
<!-- 1f7e6821&#45;c33e&#45;4f61&#45;b735&#45;c4358e184381&#45;&gt;dbfd25a5&#45;d6c7&#45;4f15&#45;9bb4&#45;0bb5bbacf435 -->
<g id="edge3" class="edge">
<title>1f7e6821&#45;c33e&#45;4f61&#45;b735&#45;c4358e184381&#45;&gt;dbfd25a5&#45;d6c7&#45;4f15&#45;9bb4&#45;0bb5bbacf435</title>
<path fill="none" stroke="black" stroke-dasharray="5,2" d="M176.78,-74.84C176.78,-66.3 176.78,-56.78 176.78,-48.1"/>
<polygon fill="black" stroke="black" points="180.28,-48.05 176.78,-38.05 173.28,-48.05 180.28,-48.05"/>
</g>
</g>
</svg>
