<?xml version="1.0" encoding="UTF-8" standalone="no"?>
<!DOCTYPE svg PUBLIC "-//W3C//DTD SVG 1.1//EN"
 "http://www.w3.org/Graphics/SVG/1.1/DTD/svg11.dtd">
<!-- Generated by graphviz version 2.43.0 (0)
 -->
<!-- Title: %3 Pages: 1 -->
<svg width="1217pt" height="599pt"
 viewBox="0.00 0.00 1217.28 599.22" xmlns="http://www.w3.org/2000/svg" xmlns:xlink="http://www.w3.org/1999/xlink">
<g id="graph0" class="graph" transform="scale(1 1) rotate(0) translate(36 563.22)">
<title>%3</title>
<polygon fill="white" stroke="transparent" points="-36,36 -36,-563.22 1181.28,-563.22 1181.28,36 -36,36"/>
<text text-anchor="middle" x="572.64" y="-512.02" font-family="Times,serif" font-size="14.00">Sweep&#39;s Plan &amp; Progress</text>
<!-- start -->
<g id="node1" class="node">
<title>start</title>
</g>
<!-- 68917235&#45;b41d&#45;4be5&#45;9515&#45;3389b03d4f89 -->
<g id="node3" class="node">
<title>68917235&#45;b41d&#45;4be5&#45;9515&#45;3389b03d4f89</title>
<ellipse fill="green" stroke="black" cx="504.78" cy="-461.35" rx="176.55" ry="26.74"/>
<text text-anchor="middle" x="504.78" y="-465.15" font-family="Times,serif" font-size="14.00">✓ Modify</text>
<text text-anchor="middle" x="504.78" y="-450.15" font-family="Times,serif" font-size="14.00">src/components/Testimonials.tsx</text>
</g>
<!-- start&#45;&gt;68917235&#45;b41d&#45;4be5&#45;9515&#45;3389b03d4f89 -->
<g id="edge10" class="edge">
<title>start&#45;&gt;68917235&#45;b41d&#45;4be5&#45;9515&#45;3389b03d4f89</title>
<path fill="none" stroke="black" d="M273.44,-461.35C276.97,-461.35 294.21,-461.35 317.82,-461.35"/>
<polygon fill="black" stroke="black" points="317.92,-464.85 327.92,-461.35 317.92,-457.85 317.92,-464.85"/>
<text text-anchor="middle" x="300.64" y="-468.15" font-family="Times,serif" font-size="14.00">Start</text>
</g>
<!-- end -->
<g id="node2" class="node">
<title>end</title>
</g>
<!-- 3e097cd4&#45;5da2&#45;425c&#45;a0af&#45;749015c3131d -->
<g id="node4" class="node">
<title>3e097cd4&#45;5da2&#45;425c&#45;a0af&#45;749015c3131d</title>
<ellipse fill="white" stroke="black" cx="899.78" cy="-461.35" rx="182.37" ry="26.74"/>
<text text-anchor="middle" x="899.78" y="-465.15" font-family="Times,serif" font-size="14.00">▶ Create</text>
<text text-anchor="middle" x="899.78" y="-450.15" font-family="Times,serif" font-size="14.00">src/__tests__/Testimonials.test.tsx</text>
</g>
<!-- 68917235&#45;b41d&#45;4be5&#45;9515&#45;3389b03d4f89&#45;&gt;3e097cd4&#45;5da2&#45;425c&#45;a0af&#45;749015c3131d -->
<g id="edge8" class="edge">
<title>68917235&#45;b41d&#45;4be5&#45;9515&#45;3389b03d4f89&#45;&gt;3e097cd4&#45;5da2&#45;425c&#45;a0af&#45;749015c3131d</title>
<path fill="none" stroke="black" d="M681.83,-461.35C690.21,-461.35 698.58,-461.35 706.95,-461.35"/>
<polygon fill="black" stroke="black" points="707.16,-464.85 717.16,-461.35 707.16,-457.85 707.16,-464.85"/>
</g>
<!-- bf21c9df&#45;f016&#45;459c&#45;9920&#45;c302cebc61d5 -->
<g id="node5" class="node">
<title>bf21c9df&#45;f016&#45;459c&#45;9920&#45;c302cebc61d5</title>
<polygon fill="red" stroke="black" points="435.78,-397.48 185.78,-397.48 185.78,-359.48 435.78,-359.48 435.78,-397.48"/>
<text text-anchor="middle" x="310.78" y="-382.28" font-family="Times,serif" font-size="14.00">✗ Check</text>
<text text-anchor="middle" x="310.78" y="-367.28" font-family="Times,serif" font-size="14.00">src/components/Testimonials.tsx</text>
</g>
<!-- 68917235&#45;b41d&#45;4be5&#45;9515&#45;3389b03d4f89&#45;&gt;bf21c9df&#45;f016&#45;459c&#45;9920&#45;c302cebc61d5 -->
<g id="edge1" class="edge">
<title>68917235&#45;b41d&#45;4be5&#45;9515&#45;3389b03d4f89&#45;&gt;bf21c9df&#45;f016&#45;459c&#45;9920&#45;c302cebc61d5</title>
<path fill="none" stroke="black" stroke-dasharray="5,2" d="M446.31,-435.98C419.99,-425.01 389.16,-412.15 363.56,-401.48"/>
<polygon fill="black" stroke="black" points="364.6,-398.12 354.02,-397.51 361.9,-404.59 364.6,-398.12"/>
</g>
<!-- b7bd1dc3&#45;a9c0&#45;4c17&#45;b88d&#45;f6eadc220a50 -->
<g id="node6" class="node">
<title>b7bd1dc3&#45;a9c0&#45;4c17&#45;b88d&#45;f6eadc220a50</title>
<polygon fill="white" stroke="black" points="703.78,-397.48 453.78,-397.48 453.78,-359.48 703.78,-359.48 703.78,-397.48"/>
<text text-anchor="middle" x="578.78" y="-382.28" font-family="Times,serif" font-size="14.00">▶ Check</text>
<text text-anchor="middle" x="578.78" y="-367.28" font-family="Times,serif" font-size="14.00">src/components/Testimonials.tsx</text>
</g>
<!-- 68917235&#45;b41d&#45;4be5&#45;9515&#45;3389b03d4f89&#45;&gt;b7bd1dc3&#45;a9c0&#45;4c17&#45;b88d&#45;f6eadc220a50 -->
<g id="edge7" class="edge">
<title>68917235&#45;b41d&#45;4be5&#45;9515&#45;3389b03d4f89&#45;&gt;b7bd1dc3&#45;a9c0&#45;4c17&#45;b88d&#45;f6eadc220a50</title>
<path fill="none" stroke="black" stroke-dasharray="5,2" d="M528.6,-434.32C537.18,-424.94 546.85,-414.37 555.4,-405.03"/>
<polygon fill="black" stroke="black" points="558.09,-407.27 562.26,-397.53 552.93,-402.55 558.09,-407.27"/>
</g>
<!-- 3e097cd4&#45;5da2&#45;425c&#45;a0af&#45;749015c3131d&#45;&gt;end -->
<g id="edge11" class="edge">
<title>3e097cd4&#45;5da2&#45;425c&#45;a0af&#45;749015c3131d&#45;&gt;end</title>
<path fill="none" stroke="black" d="M1082.32,-461.35C1104.35,-461.35 1122.94,-461.35 1133.96,-461.35"/>
<polygon fill="black" stroke="black" points="1134.09,-464.85 1144.09,-461.35 1134.09,-457.85 1134.09,-464.85"/>
<text text-anchor="middle" x="1113.24" y="-468.15" font-family="Times,serif" font-size="14.00">Finish</text>
</g>
<!-- a26aeefb&#45;6a6e&#45;441e&#45;a79b&#45;c2beb0109e87 -->
<g id="node7" class="node">
<title>a26aeefb&#45;6a6e&#45;441e&#45;a79b&#45;c2beb0109e87</title>
<polygon fill="white" stroke="black" points="1028.78,-397.48 770.78,-397.48 770.78,-359.48 1028.78,-359.48 1028.78,-397.48"/>
<text text-anchor="middle" x="899.78" y="-382.28" font-family="Times,serif" font-size="14.00">▶ Check</text>
<text text-anchor="middle" x="899.78" y="-367.28" font-family="Times,serif" font-size="14.00">src/__tests__/Testimonials.test.tsx</text>
</g>
<!-- 3e097cd4&#45;5da2&#45;425c&#45;a0af&#45;749015c3131d&#45;&gt;a26aeefb&#45;6a6e&#45;441e&#45;a79b&#45;c2beb0109e87 -->
<g id="edge9" class="edge">
<title>3e097cd4&#45;5da2&#45;425c&#45;a0af&#45;749015c3131d&#45;&gt;a26aeefb&#45;6a6e&#45;441e&#45;a79b&#45;c2beb0109e87</title>
<path fill="none" stroke="black" stroke-dasharray="5,2" d="M899.78,-434.32C899.78,-425.78 899.78,-416.26 899.78,-407.58"/>
<polygon fill="black" stroke="black" points="903.28,-407.53 899.78,-397.53 896.28,-407.53 903.28,-407.53"/>
</g>
<!-- 1f7e6821&#45;c33e&#45;4f61&#45;b735&#45;c4358e184381 -->
<g id="node8" class="node">
<title>1f7e6821&#45;c33e&#45;4f61&#45;b735&#45;c4358e184381</title>
<ellipse fill="green" stroke="black" cx="310.78" cy="-281.61" rx="176.55" ry="26.74"/>
<text text-anchor="middle" x="310.78" y="-285.41" font-family="Times,serif" font-size="14.00">✓ Modify</text>
<text text-anchor="middle" x="310.78" y="-270.41" font-family="Times,serif" font-size="14.00">src/components/Testimonials.tsx</text>
</g>
<!-- bf21c9df&#45;f016&#45;459c&#45;9920&#45;c302cebc61d5&#45;&gt;1f7e6821&#45;c33e&#45;4f61&#45;b735&#45;c4358e184381 -->
<g id="edge2" class="edge">
<title>bf21c9df&#45;f016&#45;459c&#45;9920&#45;c302cebc61d5&#45;&gt;1f7e6821&#45;c33e&#45;4f61&#45;b735&#45;c4358e184381</title>
<path fill="none" stroke="black" d="M310.78,-359.19C310.78,-347.78 310.78,-332.69 310.78,-318.92"/>
<polygon fill="black" stroke="black" points="314.28,-318.74 310.78,-308.74 307.28,-318.74 314.28,-318.74"/>
<text text-anchor="middle" x="411.78" y="-330.28" font-family="Times,serif" font-size="14.00">Additional changes required</text>
</g>
<!-- dbfd25a5&#45;d6c7&#45;4f15&#45;9bb4&#45;0bb5bbacf435 -->
<g id="node9" class="node">
<title>dbfd25a5&#45;d6c7&#45;4f15&#45;9bb4&#45;0bb5bbacf435</title>
<polygon fill="red" stroke="black" points="301.78,-217.74 51.78,-217.74 51.78,-179.74 301.78,-179.74 301.78,-217.74"/>
<text text-anchor="middle" x="176.78" y="-202.54" font-family="Times,serif" font-size="14.00">✗ Check</text>
<text text-anchor="middle" x="176.78" y="-187.54" font-family="Times,serif" font-size="14.00">src/components/Testimonials.tsx</text>
</g>
<!-- 1f7e6821&#45;c33e&#45;4f61&#45;b735&#45;c4358e184381&#45;&gt;dbfd25a5&#45;d6c7&#45;4f15&#45;9bb4&#45;0bb5bbacf435 -->
<g id="edge3" class="edge">
<title>1f7e6821&#45;c33e&#45;4f61&#45;b735&#45;c4358e184381&#45;&gt;dbfd25a5&#45;d6c7&#45;4f15&#45;9bb4&#45;0bb5bbacf435</title>
<path fill="none" stroke="black" stroke-dasharray="5,2" d="M269.11,-255.47C252.13,-245.22 232.6,-233.43 215.89,-223.34"/>
<polygon fill="black" stroke="black" points="217.29,-220.11 206.92,-217.93 213.68,-226.1 217.29,-220.11"/>
</g>
<!-- ad4a7825&#45;2b68&#45;417f&#45;a110&#45;8d3d06da571a -->
<g id="node10" class="node">
<title>ad4a7825&#45;2b68&#45;417f&#45;a110&#45;8d3d06da571a</title>
<polygon fill="white" stroke="black" points="569.78,-217.74 319.78,-217.74 319.78,-179.74 569.78,-179.74 569.78,-217.74"/>
<text text-anchor="middle" x="444.78" y="-202.54" font-family="Times,serif" font-size="14.00">▶ Check</text>
<text text-anchor="middle" x="444.78" y="-187.54" font-family="Times,serif" font-size="14.00">src/components/Testimonials.tsx</text>
</g>
<!-- 1f7e6821&#45;c33e&#45;4f61&#45;b735&#45;c4358e184381&#45;&gt;ad4a7825&#45;2b68&#45;417f&#45;a110&#45;8d3d06da571a -->
<g id="edge6" class="edge">
<title>1f7e6821&#45;c33e&#45;4f61&#45;b735&#45;c4358e184381&#45;&gt;ad4a7825&#45;2b68&#45;417f&#45;a110&#45;8d3d06da571a</title>
<path fill="none" stroke="black" stroke-dasharray="5,2" d="M352.44,-255.47C369.42,-245.22 388.96,-233.43 405.67,-223.34"/>
<polygon fill="black" stroke="black" points="407.88,-226.1 414.63,-217.93 404.26,-220.11 407.88,-226.1"/>
</g>
<!-- 7382aa35&#45;69ce&#45;4beb&#45;85c4&#45;5f84b7399597 -->
<g id="node11" class="node">
<title>7382aa35&#45;69ce&#45;4beb&#45;85c4&#45;5f84b7399597</title>
<ellipse fill="yellow" stroke="black" cx="176.78" cy="-101.87" rx="176.55" ry="26.74"/>
<text text-anchor="middle" x="176.78" y="-105.67" font-family="Times,serif" font-size="14.00">⋯ Modify</text>
<text text-anchor="middle" x="176.78" y="-90.67" font-family="Times,serif" font-size="14.00">src/components/Testimonials.tsx</text>
</g>
<!-- dbfd25a5&#45;d6c7&#45;4f15&#45;9bb4&#45;0bb5bbacf435&#45;&gt;7382aa35&#45;69ce&#45;4beb&#45;85c4&#45;5f84b7399597 -->
<g id="edge4" class="edge">
<title>dbfd25a5&#45;d6c7&#45;4f15&#45;9bb4&#45;0bb5bbacf435&#45;&gt;7382aa35&#45;69ce&#45;4beb&#45;85c4&#45;5f84b7399597</title>
<path fill="none" stroke="black" d="M176.78,-179.45C176.78,-168.03 176.78,-152.95 176.78,-139.18"/>
<polygon fill="black" stroke="black" points="180.28,-139 176.78,-129 173.28,-139 180.28,-139"/>
<text text-anchor="middle" x="277.78" y="-150.54" font-family="Times,serif" font-size="14.00">Additional changes required</text>
</g>
<!-- 66346b24&#45;61b7&#45;4626&#45;aedf&#45;27999811dbbe -->
<g id="node12" class="node">
<title>66346b24&#45;61b7&#45;4626&#45;aedf&#45;27999811dbbe</title>
<polygon fill="white" stroke="black" points="301.78,-38 51.78,-38 51.78,0 301.78,0 301.78,-38"/>
<text text-anchor="middle" x="176.78" y="-22.8" font-family="Times,serif" font-size="14.00">▶ Check</text>
<text text-anchor="middle" x="176.78" y="-7.8" font-family="Times,serif" font-size="14.00">src/components/Testimonials.tsx</text>
</g>
<!-- 7382aa35&#45;69ce&#45;4beb&#45;85c4&#45;5f84b7399597&#45;&gt;66346b24&#45;61b7&#45;4626&#45;aedf&#45;27999811dbbe -->
<g id="edge5" class="edge">
<title>7382aa35&#45;69ce&#45;4beb&#45;85c4&#45;5f84b7399597&#45;&gt;66346b24&#45;61b7&#45;4626&#45;aedf&#45;27999811dbbe</title>
<path fill="none" stroke="black" stroke-dasharray="5,2" d="M176.78,-74.84C176.78,-66.3 176.78,-56.78 176.78,-48.1"/>
<polygon fill="black" stroke="black" points="180.28,-48.05 176.78,-38.05 173.28,-48.05 180.28,-48.05"/>
</g>
</g>
</svg>
