<?xml version="1.0" encoding="UTF-8" standalone="no"?>
<!DOCTYPE svg PUBLIC "-//W3C//DTD SVG 1.1//EN"
 "http://www.w3.org/Graphics/SVG/1.1/DTD/svg11.dtd">
<!-- Generated by graphviz version 2.43.0 (0)
 -->
<!-- Title: %3 Pages: 1 -->
<svg width="963pt" height="240pt"
 viewBox="0.00 0.00 963.00 239.74" xmlns="http://www.w3.org/2000/svg" xmlns:xlink="http://www.w3.org/1999/xlink">
<g id="graph0" class="graph" transform="scale(1 1) rotate(0) translate(36 203.74)">
<title>%3</title>
<polygon fill="white" stroke="transparent" points="-36,36 -36,-203.74 927,-203.74 927,36 -36,36"/>
<text text-anchor="middle" x="445.5" y="-152.54" font-family="Times,serif" font-size="14.00">Sweep&#39;s Plan &amp; Progress</text>
<!-- start -->
<g id="node1" class="node">
<title>start</title>
</g>
<!-- 69eefaa6&#45;cf9e&#45;4e23&#45;bac9&#45;712aeab9e026 -->
<g id="node3" class="node">
<title>69eefaa6&#45;cf9e&#45;4e23&#45;bac9&#45;712aeab9e026</title>
<ellipse fill="yellow" stroke="black" cx="204.5" cy="-101.87" rx="149.4" ry="26.74"/>
<text text-anchor="middle" x="204.5" y="-105.67" font-family="Times,serif" font-size="14.00">⋯ Modify</text>
<text text-anchor="middle" x="204.5" y="-90.67" font-family="Times,serif" font-size="14.00">src/components/Navbar.tsx</text>
</g>
<!-- start&#45;&gt;69eefaa6&#45;cf9e&#45;4e23&#45;bac9&#45;712aeab9e026 -->
<g id="edge4" class="edge">
<title>start&#45;&gt;69eefaa6&#45;cf9e&#45;4e23&#45;bac9&#45;712aeab9e026</title>
<path fill="none" stroke="black" d="M1.09,-101.87C4.42,-101.87 21.68,-101.87 44.85,-101.87"/>
<polygon fill="black" stroke="black" points="45.12,-105.37 55.12,-101.87 45.12,-98.37 45.12,-105.37"/>
<text text-anchor="middle" x="28.15" y="-108.67" font-family="Times,serif" font-size="14.00">Start</text>
</g>
<!-- end -->
<g id="node2" class="node">
<title>end</title>
</g>
<!-- 77c2e64d&#45;a5c6&#45;48b1&#45;af8e&#45;14f9610616e1 -->
<g id="node4" class="node">
<title>77c2e64d&#45;a5c6&#45;48b1&#45;af8e&#45;14f9610616e1</title>
<ellipse fill="white" stroke="black" cx="608.5" cy="-101.87" rx="219.41" ry="26.74"/>
<text text-anchor="middle" x="608.5" y="-105.67" font-family="Times,serif" font-size="14.00">▶ Create</text>
<text text-anchor="middle" x="608.5" y="-90.67" font-family="Times,serif" font-size="14.00">src/components/__tests__/Navbar.test.tsx</text>
</g>
<!-- 69eefaa6&#45;cf9e&#45;4e23&#45;bac9&#45;712aeab9e026&#45;&gt;77c2e64d&#45;a5c6&#45;48b1&#45;af8e&#45;14f9610616e1 -->
<g id="edge2" class="edge">
<title>69eefaa6&#45;cf9e&#45;4e23&#45;bac9&#45;712aeab9e026&#45;&gt;77c2e64d&#45;a5c6&#45;48b1&#45;af8e&#45;14f9610616e1</title>
<path fill="none" stroke="black" d="M354.03,-101.87C362.27,-101.87 370.52,-101.87 378.76,-101.87"/>
<polygon fill="black" stroke="black" points="378.82,-105.37 388.82,-101.87 378.82,-98.37 378.82,-105.37"/>
</g>
<!-- a61aa17a&#45;b673&#45;479f&#45;8a28&#45;e75002346386 -->
<g id="node5" class="node">
<title>a61aa17a&#45;b673&#45;479f&#45;8a28&#45;e75002346386</title>
<polygon fill="white" stroke="black" points="310,-38 99,-38 99,0 310,0 310,-38"/>
<text text-anchor="middle" x="204.5" y="-22.8" font-family="Times,serif" font-size="14.00">▶ Check</text>
<text text-anchor="middle" x="204.5" y="-7.8" font-family="Times,serif" font-size="14.00">src/components/Navbar.tsx</text>
</g>
<!-- 69eefaa6&#45;cf9e&#45;4e23&#45;bac9&#45;712aeab9e026&#45;&gt;a61aa17a&#45;b673&#45;479f&#45;8a28&#45;e75002346386 -->
<g id="edge1" class="edge">
<title>69eefaa6&#45;cf9e&#45;4e23&#45;bac9&#45;712aeab9e026&#45;&gt;a61aa17a&#45;b673&#45;479f&#45;8a28&#45;e75002346386</title>
<path fill="none" stroke="black" stroke-dasharray="5,2" d="M204.5,-74.84C204.5,-66.3 204.5,-56.78 204.5,-48.1"/>
<polygon fill="black" stroke="black" points="208,-48.05 204.5,-38.05 201,-48.05 208,-48.05"/>
</g>
<!-- 77c2e64d&#45;a5c6&#45;48b1&#45;af8e&#45;14f9610616e1&#45;&gt;end -->
<g id="edge5" class="edge">
<title>77c2e64d&#45;a5c6&#45;48b1&#45;af8e&#45;14f9610616e1&#45;&gt;end</title>
<path fill="none" stroke="black" d="M827.92,-101.87C850.34,-101.87 868.88,-101.87 879.82,-101.87"/>
<polygon fill="black" stroke="black" points="879.82,-105.37 889.82,-101.87 879.82,-98.37 879.82,-105.37"/>
<text text-anchor="middle" x="858.85" y="-108.67" font-family="Times,serif" font-size="14.00">Finish</text>
</g>
<!-- cfb53ffb&#45;613b&#45;4964&#45;af1c&#45;f3e8913094dc -->
<g id="node6" class="node">
<title>cfb53ffb&#45;613b&#45;4964&#45;af1c&#45;f3e8913094dc</title>
<polygon fill="white" stroke="black" points="763.5,-38 453.5,-38 453.5,0 763.5,0 763.5,-38"/>
<text text-anchor="middle" x="608.5" y="-22.8" font-family="Times,serif" font-size="14.00">▶ Check</text>
<text text-anchor="middle" x="608.5" y="-7.8" font-family="Times,serif" font-size="14.00">src/components/__tests__/Navbar.test.tsx</text>
</g>
<!-- 77c2e64d&#45;a5c6&#45;48b1&#45;af8e&#45;14f9610616e1&#45;&gt;cfb53ffb&#45;613b&#45;4964&#45;af1c&#45;f3e8913094dc -->
<g id="edge3" class="edge">
<title>77c2e64d&#45;a5c6&#45;48b1&#45;af8e&#45;14f9610616e1&#45;&gt;cfb53ffb&#45;613b&#45;4964&#45;af1c&#45;f3e8913094dc</title>
<path fill="none" stroke="black" stroke-dasharray="5,2" d="M608.5,-74.84C608.5,-66.3 608.5,-56.78 608.5,-48.1"/>
<polygon fill="black" stroke="black" points="612,-48.05 608.5,-38.05 605,-48.05 612,-48.05"/>
</g>
</g>
</svg>
