<?xml version="1.0" encoding="UTF-8" standalone="no"?>
<!DOCTYPE svg PUBLIC "-//W3C//DTD SVG 1.1//EN"
 "http://www.w3.org/Graphics/SVG/1.1/DTD/svg11.dtd">
<!-- Generated by graphviz version 2.43.0 (0)
 -->
<!-- Title: %3 Pages: 1 -->
<svg width="869pt" height="240pt"
 viewBox="0.00 0.00 869.00 239.74" xmlns="http://www.w3.org/2000/svg" xmlns:xlink="http://www.w3.org/1999/xlink">
<g id="graph0" class="graph" transform="scale(1 1) rotate(0) translate(36 203.74)">
<title>%3</title>
<polygon fill="white" stroke="transparent" points="-36,36 -36,-203.74 833,-203.74 833,36 -36,36"/>
<text text-anchor="middle" x="398.5" y="-152.54" font-family="Times,serif" font-size="14.00">Sweep&#39;s Plan &amp; Progress</text>
<!-- start -->
<g id="node1" class="node">
<title>start</title>
</g>
<!-- bf5b21ad&#45;51ec&#45;4e33&#45;84b7&#45;48816f20821c -->
<g id="node3" class="node">
<title>bf5b21ad&#45;51ec&#45;4e33&#45;84b7&#45;48816f20821c</title>
<ellipse fill="yellow" stroke="black" cx="204.5" cy="-101.87" rx="149.4" ry="26.74"/>
<text text-anchor="middle" x="204.5" y="-105.67" font-family="Times,serif" font-size="14.00">⋯ Modify</text>
<text text-anchor="middle" x="204.5" y="-90.67" font-family="Times,serif" font-size="14.00">src/components/Navbar.tsx</text>
</g>
<!-- start&#45;&gt;bf5b21ad&#45;51ec&#45;4e33&#45;84b7&#45;48816f20821c -->
<g id="edge4" class="edge">
<title>start&#45;&gt;bf5b21ad&#45;51ec&#45;4e33&#45;84b7&#45;48816f20821c</title>
<path fill="none" stroke="black" d="M1.09,-101.87C4.42,-101.87 21.68,-101.87 44.85,-101.87"/>
<polygon fill="black" stroke="black" points="45.12,-105.37 55.12,-101.87 45.12,-98.37 45.12,-105.37"/>
<text text-anchor="middle" x="28.15" y="-108.67" font-family="Times,serif" font-size="14.00">Start</text>
</g>
<!-- end -->
<g id="node2" class="node">
<title>end</title>
</g>
<!-- a1f4339f&#45;8c46&#45;4c55&#45;87d3&#45;19de6a7b5019 -->
<g id="node4" class="node">
<title>a1f4339f&#45;8c46&#45;4c55&#45;87d3&#45;19de6a7b5019</title>
<ellipse fill="white" stroke="black" cx="561.5" cy="-101.87" rx="171.65" ry="26.74"/>
<text text-anchor="middle" x="561.5" y="-105.67" font-family="Times,serif" font-size="14.00">▶ Create</text>
<text text-anchor="middle" x="561.5" y="-90.67" font-family="Times,serif" font-size="14.00">src/components/Navbar.test.tsx</text>
</g>
<!-- bf5b21ad&#45;51ec&#45;4e33&#45;84b7&#45;48816f20821c&#45;&gt;a1f4339f&#45;8c46&#45;4c55&#45;87d3&#45;19de6a7b5019 -->
<g id="edge2" class="edge">
<title>bf5b21ad&#45;51ec&#45;4e33&#45;84b7&#45;48816f20821c&#45;&gt;a1f4339f&#45;8c46&#45;4c55&#45;87d3&#45;19de6a7b5019</title>
<path fill="none" stroke="black" d="M353.71,-101.87C362.27,-101.87 370.83,-101.87 379.38,-101.87"/>
<polygon fill="black" stroke="black" points="379.43,-105.37 389.43,-101.87 379.43,-98.37 379.43,-105.37"/>
</g>
<!-- 90543c9c&#45;9ed2&#45;4d8d&#45;ab8f&#45;0efba7306f7c -->
<g id="node5" class="node">
<title>90543c9c&#45;9ed2&#45;4d8d&#45;ab8f&#45;0efba7306f7c</title>
<polygon fill="white" stroke="black" points="310,-38 99,-38 99,0 310,0 310,-38"/>
<text text-anchor="middle" x="204.5" y="-22.8" font-family="Times,serif" font-size="14.00">▶ Check</text>
<text text-anchor="middle" x="204.5" y="-7.8" font-family="Times,serif" font-size="14.00">src/components/Navbar.tsx</text>
</g>
<!-- bf5b21ad&#45;51ec&#45;4e33&#45;84b7&#45;48816f20821c&#45;&gt;90543c9c&#45;9ed2&#45;4d8d&#45;ab8f&#45;0efba7306f7c -->
<g id="edge1" class="edge">
<title>bf5b21ad&#45;51ec&#45;4e33&#45;84b7&#45;48816f20821c&#45;&gt;90543c9c&#45;9ed2&#45;4d8d&#45;ab8f&#45;0efba7306f7c</title>
<path fill="none" stroke="black" stroke-dasharray="5,2" d="M204.5,-74.84C204.5,-66.3 204.5,-56.78 204.5,-48.1"/>
<polygon fill="black" stroke="black" points="208,-48.05 204.5,-38.05 201,-48.05 208,-48.05"/>
</g>
<!-- a1f4339f&#45;8c46&#45;4c55&#45;87d3&#45;19de6a7b5019&#45;&gt;end -->
<g id="edge5" class="edge">
<title>a1f4339f&#45;8c46&#45;4c55&#45;87d3&#45;19de6a7b5019&#45;&gt;end</title>
<path fill="none" stroke="black" d="M733.52,-101.87C755.6,-101.87 774.37,-101.87 785.54,-101.87"/>
<polygon fill="black" stroke="black" points="785.8,-105.37 795.8,-101.87 785.8,-98.37 785.8,-105.37"/>
<text text-anchor="middle" x="764.66" y="-108.67" font-family="Times,serif" font-size="14.00">Finish</text>
</g>
<!-- 99ac82fa&#45;e390&#45;4979&#45;92b3&#45;b55b4b40a7a5 -->
<g id="node6" class="node">
<title>99ac82fa&#45;e390&#45;4979&#45;92b3&#45;b55b4b40a7a5</title>
<polygon fill="white" stroke="black" points="683,-38 440,-38 440,0 683,0 683,-38"/>
<text text-anchor="middle" x="561.5" y="-22.8" font-family="Times,serif" font-size="14.00">▶ Check</text>
<text text-anchor="middle" x="561.5" y="-7.8" font-family="Times,serif" font-size="14.00">src/components/Navbar.test.tsx</text>
</g>
<!-- a1f4339f&#45;8c46&#45;4c55&#45;87d3&#45;19de6a7b5019&#45;&gt;99ac82fa&#45;e390&#45;4979&#45;92b3&#45;b55b4b40a7a5 -->
<g id="edge3" class="edge">
<title>a1f4339f&#45;8c46&#45;4c55&#45;87d3&#45;19de6a7b5019&#45;&gt;99ac82fa&#45;e390&#45;4979&#45;92b3&#45;b55b4b40a7a5</title>
<path fill="none" stroke="black" stroke-dasharray="5,2" d="M561.5,-74.84C561.5,-66.3 561.5,-56.78 561.5,-48.1"/>
<polygon fill="black" stroke="black" points="565,-48.05 561.5,-38.05 558,-48.05 565,-48.05"/>
</g>
</g>
</svg>
