<?xml version="1.0" encoding="UTF-8" standalone="no"?>
<!DOCTYPE svg PUBLIC "-//W3C//DTD SVG 1.1//EN"
 "http://www.w3.org/Graphics/SVG/1.1/DTD/svg11.dtd">
<!-- Generated by graphviz version 2.43.0 (0)
 -->
<!-- Title: %3 Pages: 1 -->
<svg width="1636pt" height="238pt"
 viewBox="0.00 0.00 1636.00 237.74" xmlns="http://www.w3.org/2000/svg" xmlns:xlink="http://www.w3.org/1999/xlink">
<g id="graph0" class="graph" transform="scale(1 1) rotate(0) translate(36 201.74)">
<title>%3</title>
<polygon fill="dimgray" stroke="transparent" points="-36,36 -36,-201.74 1600,-201.74 1600,36 -36,36"/>
<text text-anchor="middle" x="782" y="-150.54" font-family="Helvetica,sans-Serif" font-size="14.00">Sweep&#39;s Plan &amp; Progress</text>
<!-- start -->
<g id="node1" class="node">
<title>start</title>
</g>
<!-- f328038b&#45;c6a4&#45;4568&#45;a9e4&#45;9d9801a02cf1 -->
<g id="node3" class="node">
<title>f328038b&#45;c6a4&#45;4568&#45;a9e4&#45;9d9801a02cf1</title>
<ellipse fill="#0ee832" stroke="black" cx="255" cy="-99.87" rx="145.83" ry="26.74"/>
<text text-anchor="middle" x="255" y="-103.67" font-family="Helvetica,sans-Serif" font-size="14.00">✓ Create</text>
<text text-anchor="middle" x="255" y="-88.67" font-family="Helvetica,sans-Serif" font-size="14.00">src/components/Signup.tsx</text>
</g>
<!-- start&#45;&gt;f328038b&#45;c6a4&#45;4568&#45;a9e4&#45;9d9801a02cf1 -->
<g id="edge8" class="edge">
<title>start&#45;&gt;f328038b&#45;c6a4&#45;4568&#45;a9e4&#45;9d9801a02cf1</title>
<path fill="none" stroke="black" d="M57.57,-99.87C60.76,-99.87 77.1,-99.87 99.13,-99.87"/>
<polygon fill="black" stroke="black" points="99.26,-103.37 109.26,-99.87 99.26,-96.37 99.26,-103.37"/>
<text text-anchor="middle" x="83.42" y="-106.67" font-family="Helvetica,sans-Serif" font-size="14.00">Start</text>
</g>
<!-- end -->
<g id="node2" class="node">
<title>end</title>
</g>
<!-- 2c01fe13&#45;bc0f&#45;488b&#45;9730&#45;6e7578e0a5ea -->
<g id="node4" class="node">
<title>2c01fe13&#45;bc0f&#45;488b&#45;9730&#45;6e7578e0a5ea</title>
<ellipse fill="#0ee832" stroke="black" cx="560" cy="-99.87" rx="67.35" ry="26.74"/>
<text text-anchor="middle" x="560" y="-103.67" font-family="Helvetica,sans-Serif" font-size="14.00">✓ Modify</text>
<text text-anchor="middle" x="560" y="-88.67" font-family="Helvetica,sans-Serif" font-size="14.00">src/App.tsx</text>
</g>
<!-- f328038b&#45;c6a4&#45;4568&#45;a9e4&#45;9d9801a02cf1&#45;&gt;2c01fe13&#45;bc0f&#45;488b&#45;9730&#45;6e7578e0a5ea -->
<g id="edge2" class="edge">
<title>f328038b&#45;c6a4&#45;4568&#45;a9e4&#45;9d9801a02cf1&#45;&gt;2c01fe13&#45;bc0f&#45;488b&#45;9730&#45;6e7578e0a5ea</title>
<path fill="none" stroke="black" d="M400.95,-99.87C428.15,-99.87 455.36,-99.87 482.57,-99.87"/>
<polygon fill="black" stroke="black" points="482.59,-103.37 492.59,-99.87 482.59,-96.37 482.59,-103.37"/>
</g>
<!-- bbf6fcff&#45;a656&#45;4dbc&#45;b7ad&#45;f477c9791469 -->
<g id="node7" class="node">
<title>bbf6fcff&#45;a656&#45;4dbc&#45;b7ad&#45;f477c9791469</title>
<polygon fill="#0ee832" stroke="black" points="398,-36 0,-36 0,0 398,0 398,-36"/>
<text text-anchor="middle" x="199" y="-14.3" font-family="Helvetica,sans-Serif" font-size="14.00">✓ Run GitHub Actions for `src/components/Signup.tsx`</text>
</g>
<!-- f328038b&#45;c6a4&#45;4568&#45;a9e4&#45;9d9801a02cf1&#45;&gt;bbf6fcff&#45;a656&#45;4dbc&#45;b7ad&#45;f477c9791469 -->
<g id="edge1" class="edge">
<title>f328038b&#45;c6a4&#45;4568&#45;a9e4&#45;9d9801a02cf1&#45;&gt;bbf6fcff&#45;a656&#45;4dbc&#45;b7ad&#45;f477c9791469</title>
<path fill="none" stroke="black" stroke-dasharray="5,2" d="M236.97,-73.16C230.58,-64.04 223.38,-53.77 216.99,-44.65"/>
<polygon fill="black" stroke="black" points="219.76,-42.52 211.16,-36.34 214.03,-46.53 219.76,-42.52"/>
</g>
<!-- fd0a7469&#45;b4f3&#45;426d&#45;b921&#45;7d97a4958a3b -->
<g id="node5" class="node">
<title>fd0a7469&#45;b4f3&#45;426d&#45;b921&#45;7d97a4958a3b</title>
<ellipse fill="white" stroke="black" cx="920" cy="-99.87" rx="145.83" ry="26.74"/>
<text text-anchor="middle" x="920" y="-103.67" font-family="Helvetica,sans-Serif" font-size="14.00">▶ Modify</text>
<text text-anchor="middle" x="920" y="-88.67" font-family="Helvetica,sans-Serif" font-size="14.00">src/components/Navbar.tsx</text>
</g>
<!-- 2c01fe13&#45;bc0f&#45;488b&#45;9730&#45;6e7578e0a5ea&#45;&gt;fd0a7469&#45;b4f3&#45;426d&#45;b921&#45;7d97a4958a3b -->
<g id="edge4" class="edge">
<title>2c01fe13&#45;bc0f&#45;488b&#45;9730&#45;6e7578e0a5ea&#45;&gt;fd0a7469&#45;b4f3&#45;426d&#45;b921&#45;7d97a4958a3b</title>
<path fill="none" stroke="black" d="M627.5,-99.87C673.09,-99.87 718.69,-99.87 764.28,-99.87"/>
<polygon fill="black" stroke="black" points="764.32,-103.37 774.32,-99.87 764.32,-96.37 764.32,-103.37"/>
</g>
<!-- c4eab1f9&#45;8010&#45;4303&#45;9ba0&#45;ee0100509298 -->
<g id="node8" class="node">
<title>c4eab1f9&#45;8010&#45;4303&#45;9ba0&#45;ee0100509298</title>
<polygon fill="#0ee832" stroke="black" points="703.5,-36 416.5,-36 416.5,0 703.5,0 703.5,-36"/>
<text text-anchor="middle" x="560" y="-14.3" font-family="Helvetica,sans-Serif" font-size="14.00">✓ Run GitHub Actions for `src/App.tsx`</text>
</g>
<!-- 2c01fe13&#45;bc0f&#45;488b&#45;9730&#45;6e7578e0a5ea&#45;&gt;c4eab1f9&#45;8010&#45;4303&#45;9ba0&#45;ee0100509298 -->
<g id="edge3" class="edge">
<title>2c01fe13&#45;bc0f&#45;488b&#45;9730&#45;6e7578e0a5ea&#45;&gt;c4eab1f9&#45;8010&#45;4303&#45;9ba0&#45;ee0100509298</title>
<path fill="none" stroke="black" stroke-dasharray="5,2" d="M560,-72.72C560,-64.27 560,-54.89 560,-46.36"/>
<polygon fill="black" stroke="black" points="563.5,-46.15 560,-36.15 556.5,-46.15 563.5,-46.15"/>
</g>
<!-- 33758217&#45;d876&#45;4c41&#45;bc01&#45;8a83883ded65 -->
<g id="node6" class="node">
<title>33758217&#45;d876&#45;4c41&#45;bc01&#45;8a83883ded65</title>
<ellipse fill="white" stroke="black" cx="1309" cy="-99.87" rx="166.75" ry="26.74"/>
<text text-anchor="middle" x="1309" y="-103.67" font-family="Helvetica,sans-Serif" font-size="14.00">▶ Create</text>
<text text-anchor="middle" x="1309" y="-88.67" font-family="Helvetica,sans-Serif" font-size="14.00">src/components/Signup.test.tsx</text>
</g>
<!-- fd0a7469&#45;b4f3&#45;426d&#45;b921&#45;7d97a4958a3b&#45;&gt;33758217&#45;d876&#45;4c41&#45;bc01&#45;8a83883ded65 -->
<g id="edge6" class="edge">
<title>fd0a7469&#45;b4f3&#45;426d&#45;b921&#45;7d97a4958a3b&#45;&gt;33758217&#45;d876&#45;4c41&#45;bc01&#45;8a83883ded65</title>
<path fill="none" stroke="black" d="M1065.88,-99.87C1087.84,-99.87 1109.8,-99.87 1131.76,-99.87"/>
<polygon fill="black" stroke="black" points="1131.85,-103.37 1141.85,-99.87 1131.85,-96.37 1131.85,-103.37"/>
</g>
<!-- 496fd8d3&#45;0c62&#45;49d2&#45;8f82&#45;c0155ae2d35e -->
<g id="node9" class="node">
<title>496fd8d3&#45;0c62&#45;49d2&#45;8f82&#45;c0155ae2d35e</title>
<polygon fill="white" stroke="black" points="1118.5,-36 721.5,-36 721.5,0 1118.5,0 1118.5,-36"/>
<text text-anchor="middle" x="920" y="-14.3" font-family="Helvetica,sans-Serif" font-size="14.00">▶ Run GitHub Actions for `src/components/Navbar.tsx`</text>
</g>
<!-- fd0a7469&#45;b4f3&#45;426d&#45;b921&#45;7d97a4958a3b&#45;&gt;496fd8d3&#45;0c62&#45;49d2&#45;8f82&#45;c0155ae2d35e -->
<g id="edge5" class="edge">
<title>fd0a7469&#45;b4f3&#45;426d&#45;b921&#45;7d97a4958a3b&#45;&gt;496fd8d3&#45;0c62&#45;49d2&#45;8f82&#45;c0155ae2d35e</title>
<path fill="none" stroke="black" stroke-dasharray="5,2" d="M920,-72.72C920,-64.27 920,-54.89 920,-46.36"/>
<polygon fill="black" stroke="black" points="923.5,-46.15 920,-36.15 916.5,-46.15 923.5,-46.15"/>
</g>
<!-- 33758217&#45;d876&#45;4c41&#45;bc01&#45;8a83883ded65&#45;&gt;end -->
<g id="edge9" class="edge">
<title>33758217&#45;d876&#45;4c41&#45;bc01&#45;8a83883ded65&#45;&gt;end</title>
<path fill="none" stroke="black" d="M1476.06,-99.87C1496,-99.87 1512.92,-99.87 1523.24,-99.87"/>
<polygon fill="black" stroke="black" points="1523.36,-103.37 1533.36,-99.87 1523.36,-96.37 1523.36,-103.37"/>
<text text-anchor="middle" x="1504.69" y="-106.67" font-family="Helvetica,sans-Serif" font-size="14.00">Finish</text>
</g>
<!-- 165481bd&#45;130f&#45;4bfc&#45;bda4&#45;da242de8e7d2 -->
<g id="node10" class="node">
<title>165481bd&#45;130f&#45;4bfc&#45;bda4&#45;da242de8e7d2</title>
<polygon fill="white" stroke="black" points="1564,-36 1136,-36 1136,0 1564,0 1564,-36"/>
<text text-anchor="middle" x="1350" y="-14.3" font-family="Helvetica,sans-Serif" font-size="14.00">▶ Run GitHub Actions for `src/components/Signup.test.tsx`</text>
</g>
<!-- 33758217&#45;d876&#45;4c41&#45;bc01&#45;8a83883ded65&#45;&gt;165481bd&#45;130f&#45;4bfc&#45;bda4&#45;da242de8e7d2 -->
<g id="edge7" class="edge">
<title>33758217&#45;d876&#45;4c41&#45;bc01&#45;8a83883ded65&#45;&gt;165481bd&#45;130f&#45;4bfc&#45;bda4&#45;da242de8e7d2</title>
<path fill="none" stroke="black" stroke-dasharray="5,2" d="M1322.42,-72.72C1326.95,-63.9 1332.01,-54.05 1336.54,-45.23"/>
<polygon fill="black" stroke="black" points="1339.75,-46.64 1341.2,-36.15 1333.52,-43.44 1339.75,-46.64"/>
</g>
</g>
</svg>
