<?xml version="1.0" encoding="UTF-8" standalone="no"?>
<!DOCTYPE svg PUBLIC "-//W3C//DTD SVG 1.1//EN"
 "http://www.w3.org/Graphics/SVG/1.1/DTD/svg11.dtd">
<!-- Generated by graphviz version 2.43.0 (0)
 -->
<!-- Title: %3 Pages: 1 -->
<svg width="902pt" height="238pt"
 viewBox="0.00 0.00 902.00 237.74" xmlns="http://www.w3.org/2000/svg" xmlns:xlink="http://www.w3.org/1999/xlink">
<g id="graph0" class="graph" transform="scale(1 1) rotate(0) translate(36 201.74)">
<title>%3</title>
<polygon fill="dimgray" stroke="transparent" points="-36,36 -36,-201.74 866,-201.74 866,36 -36,36"/>
<text text-anchor="middle" x="415" y="-150.54" font-family="Helvetica,sans-Serif" font-size="14.00">Sweep&#39;s Plan &amp; Progress</text>
<!-- start -->
<g id="node1" class="node">
<title>start</title>
</g>
<!-- a9b48f69&#45;8a86&#45;47de&#45;a467&#45;316f4c5382ef -->
<g id="node3" class="node">
<title>a9b48f69&#45;8a86&#45;47de&#45;a467&#45;316f4c5382ef</title>
<ellipse fill="yellow" stroke="black" cx="221.5" cy="-99.87" rx="169" ry="26.74"/>
<text text-anchor="middle" x="221.5" y="-103.67" font-family="Helvetica,sans-Serif" font-size="14.00">⋯ Modify</text>
<text text-anchor="middle" x="221.5" y="-88.67" font-family="Helvetica,sans-Serif" font-size="14.00">src/components/CallToAction.tsx</text>
</g>
<!-- start&#45;&gt;a9b48f69&#45;8a86&#45;47de&#45;a467&#45;316f4c5382ef -->
<g id="edge4" class="edge">
<title>start&#45;&gt;a9b48f69&#45;8a86&#45;47de&#45;a467&#45;316f4c5382ef</title>
<path fill="none" stroke="black" d="M1.13,-99.87C4.44,-99.87 20.41,-99.87 42.37,-99.87"/>
<polygon fill="black" stroke="black" points="42.49,-103.37 52.49,-99.87 42.49,-96.37 42.49,-103.37"/>
<text text-anchor="middle" x="26.75" y="-106.67" font-family="Helvetica,sans-Serif" font-size="14.00">Start</text>
</g>
<!-- end -->
<g id="node2" class="node">
<title>end</title>
</g>
<!-- 33a89ec6&#45;a57d&#45;4c7a&#45;b7ea&#45;5f069962f7aa -->
<g id="node4" class="node">
<title>33a89ec6&#45;a57d&#45;4c7a&#45;b7ea&#45;5f069962f7aa</title>
<ellipse fill="white" stroke="black" cx="603.5" cy="-99.87" rx="167.67" ry="26.74"/>
<text text-anchor="middle" x="603.5" y="-103.67" font-family="Helvetica,sans-Serif" font-size="14.00">▶ Modify</text>
<text text-anchor="middle" x="603.5" y="-88.67" font-family="Helvetica,sans-Serif" font-size="14.00">src/components/PricingPage.tsx</text>
</g>
<!-- a9b48f69&#45;8a86&#45;47de&#45;a467&#45;316f4c5382ef&#45;&gt;33a89ec6&#45;a57d&#45;4c7a&#45;b7ea&#45;5f069962f7aa -->
<g id="edge2" class="edge">
<title>a9b48f69&#45;8a86&#45;47de&#45;a467&#45;316f4c5382ef&#45;&gt;33a89ec6&#45;a57d&#45;4c7a&#45;b7ea&#45;5f069962f7aa</title>
<path fill="none" stroke="black" d="M390.86,-99.87C402.43,-99.87 413.99,-99.87 425.55,-99.87"/>
<polygon fill="black" stroke="black" points="425.72,-103.37 435.72,-99.87 425.72,-96.37 425.72,-103.37"/>
</g>
<!-- b15f053b&#45;d087&#45;4556&#45;8903&#45;b1c92bc5775a -->
<g id="node5" class="node">
<title>b15f053b&#45;d087&#45;4556&#45;8903&#45;b1c92bc5775a</title>
<polygon fill="white" stroke="black" points="399.5,-36 7.5,-36 7.5,0 399.5,0 399.5,-36"/>
<text text-anchor="middle" x="203.5" y="-14.3" font-family="Helvetica,sans-Serif" font-size="14.00">▶ Ran sandbox for `src/components/CallToAction.tsx`.</text>
</g>
<!-- a9b48f69&#45;8a86&#45;47de&#45;a467&#45;316f4c5382ef&#45;&gt;b15f053b&#45;d087&#45;4556&#45;8903&#45;b1c92bc5775a -->
<g id="edge1" class="edge">
<title>a9b48f69&#45;8a86&#45;47de&#45;a467&#45;316f4c5382ef&#45;&gt;b15f053b&#45;d087&#45;4556&#45;8903&#45;b1c92bc5775a</title>
<path fill="none" stroke="black" stroke-dasharray="5,2" d="M215.61,-72.72C213.68,-64.18 211.54,-54.68 209.6,-46.08"/>
<polygon fill="black" stroke="black" points="212.98,-45.13 207.36,-36.15 206.15,-46.67 212.98,-45.13"/>
</g>
<!-- 33a89ec6&#45;a57d&#45;4c7a&#45;b7ea&#45;5f069962f7aa&#45;&gt;end -->
<g id="edge5" class="edge">
<title>33a89ec6&#45;a57d&#45;4c7a&#45;b7ea&#45;5f069962f7aa&#45;&gt;end</title>
<path fill="none" stroke="black" d="M771.3,-99.87C791.33,-99.87 808.33,-99.87 818.69,-99.87"/>
<polygon fill="black" stroke="black" points="818.86,-103.37 828.86,-99.87 818.86,-96.37 818.86,-103.37"/>
<text text-anchor="middle" x="800.04" y="-106.67" font-family="Helvetica,sans-Serif" font-size="14.00">Finish</text>
</g>
<!-- 49835b47&#45;5274&#45;49a9&#45;85d7&#45;515a2c8fb850 -->
<g id="node6" class="node">
<title>49835b47&#45;5274&#45;49a9&#45;85d7&#45;515a2c8fb850</title>
<polygon fill="white" stroke="black" points="807,-36 418,-36 418,0 807,0 807,-36"/>
<text text-anchor="middle" x="612.5" y="-14.3" font-family="Helvetica,sans-Serif" font-size="14.00">▶ Ran sandbox for `src/components/PricingPage.tsx`.</text>
</g>
<!-- 33a89ec6&#45;a57d&#45;4c7a&#45;b7ea&#45;5f069962f7aa&#45;&gt;49835b47&#45;5274&#45;49a9&#45;85d7&#45;515a2c8fb850 -->
<g id="edge3" class="edge">
<title>33a89ec6&#45;a57d&#45;4c7a&#45;b7ea&#45;5f069962f7aa&#45;&gt;49835b47&#45;5274&#45;49a9&#45;85d7&#45;515a2c8fb850</title>
<path fill="none" stroke="black" stroke-dasharray="5,2" d="M606.45,-72.72C607.4,-64.27 608.46,-54.89 609.42,-46.36"/>
<polygon fill="black" stroke="black" points="612.93,-46.48 610.57,-36.15 605.97,-45.69 612.93,-46.48"/>
</g>
</g>
</svg>
