<?xml version="1.0" encoding="UTF-8" standalone="no"?>
<!DOCTYPE svg PUBLIC "-//W3C//DTD SVG 1.1//EN"
 "http://www.w3.org/Graphics/SVG/1.1/DTD/svg11.dtd">
<!-- Generated by graphviz version 2.43.0 (0)
 -->
<!-- Title: %3 Pages: 1 -->
<svg width="932pt" height="238pt"
 viewBox="0.00 0.00 931.50 237.74" xmlns="http://www.w3.org/2000/svg" xmlns:xlink="http://www.w3.org/1999/xlink">
<g id="graph0" class="graph" transform="scale(1 1) rotate(0) translate(36 201.74)">
<title>%3</title>
<polygon fill="dimgray" stroke="transparent" points="-36,36 -36,-201.74 895.5,-201.74 895.5,36 -36,36"/>
<text text-anchor="middle" x="429.75" y="-150.54" font-family="Helvetica,sans-Serif" font-size="14.00">Sweep&#39;s Plan &amp; Progress</text>
<!-- start -->
<g id="node1" class="node">
<title>start</title>
</g>
<!-- af75821d&#45;a06b&#45;46fb&#45;9782&#45;214ea54801a7 -->
<g id="node3" class="node">
<title>af75821d&#45;a06b&#45;46fb&#45;9782&#45;214ea54801a7</title>
<ellipse fill="yellow" stroke="black" cx="255.5" cy="-99.87" rx="169" ry="26.74"/>
<text text-anchor="middle" x="255.5" y="-103.67" font-family="Helvetica,sans-Serif" font-size="14.00">⋯ Modify</text>
<text text-anchor="middle" x="255.5" y="-88.67" font-family="Helvetica,sans-Serif" font-size="14.00">src/components/CallToAction.tsx</text>
</g>
<!-- start&#45;&gt;af75821d&#45;a06b&#45;46fb&#45;9782&#45;214ea54801a7 -->
<g id="edge4" class="edge">
<title>start&#45;&gt;af75821d&#45;a06b&#45;46fb&#45;9782&#45;214ea54801a7</title>
<path fill="none" stroke="black" d="M35.13,-99.87C38.44,-99.87 54.41,-99.87 76.37,-99.87"/>
<polygon fill="black" stroke="black" points="76.49,-103.37 86.49,-99.87 76.49,-96.37 76.49,-103.37"/>
<text text-anchor="middle" x="60.75" y="-106.67" font-family="Helvetica,sans-Serif" font-size="14.00">Start</text>
</g>
<!-- end -->
<g id="node2" class="node">
<title>end</title>
</g>
<!-- 94990c65&#45;0071&#45;4461&#45;8126&#45;073d45760e53 -->
<g id="node4" class="node">
<title>94990c65&#45;0071&#45;4461&#45;8126&#45;073d45760e53</title>
<ellipse fill="white" stroke="black" cx="634.5" cy="-99.87" rx="154.3" ry="26.74"/>
<text text-anchor="middle" x="634.5" y="-103.67" font-family="Helvetica,sans-Serif" font-size="14.00">▶ Create</text>
<text text-anchor="middle" x="634.5" y="-88.67" font-family="Helvetica,sans-Serif" font-size="14.00">src/tests/CallToAction.test.tsx</text>
</g>
<!-- af75821d&#45;a06b&#45;46fb&#45;9782&#45;214ea54801a7&#45;&gt;94990c65&#45;0071&#45;4461&#45;8126&#45;073d45760e53 -->
<g id="edge2" class="edge">
<title>af75821d&#45;a06b&#45;46fb&#45;9782&#45;214ea54801a7&#45;&gt;94990c65&#45;0071&#45;4461&#45;8126&#45;073d45760e53</title>
<path fill="none" stroke="black" d="M424.64,-99.87C439.63,-99.87 454.62,-99.87 469.6,-99.87"/>
<polygon fill="black" stroke="black" points="469.98,-103.37 479.98,-99.87 469.98,-96.37 469.98,-103.37"/>
</g>
<!-- fb73b8f0&#45;b6e1&#45;45c2&#45;bafd&#45;3093e8c78884 -->
<g id="node5" class="node">
<title>fb73b8f0&#45;b6e1&#45;45c2&#45;bafd&#45;3093e8c78884</title>
<polygon fill="white" stroke="black" points="431,-36 0,-36 0,0 431,0 431,-36"/>
<text text-anchor="middle" x="215.5" y="-14.3" font-family="Helvetica,sans-Serif" font-size="14.00">▶ Run GitHub Actions for `src/components/CallToAction.tsx`</text>
</g>
<!-- af75821d&#45;a06b&#45;46fb&#45;9782&#45;214ea54801a7&#45;&gt;fb73b8f0&#45;b6e1&#45;45c2&#45;bafd&#45;3093e8c78884 -->
<g id="edge1" class="edge">
<title>af75821d&#45;a06b&#45;46fb&#45;9782&#45;214ea54801a7&#45;&gt;fb73b8f0&#45;b6e1&#45;45c2&#45;bafd&#45;3093e8c78884</title>
<path fill="none" stroke="black" stroke-dasharray="5,2" d="M242.4,-72.72C237.99,-63.9 233.06,-54.05 228.64,-45.23"/>
<polygon fill="black" stroke="black" points="231.69,-43.52 224.09,-36.15 225.44,-46.66 231.69,-43.52"/>
</g>
<!-- 94990c65&#45;0071&#45;4461&#45;8126&#45;073d45760e53&#45;&gt;end -->
<g id="edge5" class="edge">
<title>94990c65&#45;0071&#45;4461&#45;8126&#45;073d45760e53&#45;&gt;end</title>
<path fill="none" stroke="black" d="M788.85,-99.87C808.55,-99.87 825.42,-99.87 835.73,-99.87"/>
<polygon fill="black" stroke="black" points="835.86,-103.37 845.86,-99.87 835.86,-96.37 835.86,-103.37"/>
<text text-anchor="middle" x="817.32" y="-106.67" font-family="Helvetica,sans-Serif" font-size="14.00">Finish</text>
</g>
<!-- 6c6e0f9a&#45;9560&#45;41d5&#45;b9f9&#45;33ffe91579e2 -->
<g id="node6" class="node">
<title>6c6e0f9a&#45;9560&#45;41d5&#45;b9f9&#45;33ffe91579e2</title>
<polygon fill="white" stroke="black" points="859.5,-36 449.5,-36 449.5,0 859.5,0 859.5,-36"/>
<text text-anchor="middle" x="654.5" y="-14.3" font-family="Helvetica,sans-Serif" font-size="14.00">▶ Run GitHub Actions for `src/tests/CallToAction.test.tsx`</text>
</g>
<!-- 94990c65&#45;0071&#45;4461&#45;8126&#45;073d45760e53&#45;&gt;6c6e0f9a&#45;9560&#45;41d5&#45;b9f9&#45;33ffe91579e2 -->
<g id="edge3" class="edge">
<title>94990c65&#45;0071&#45;4461&#45;8126&#45;073d45760e53&#45;&gt;6c6e0f9a&#45;9560&#45;41d5&#45;b9f9&#45;33ffe91579e2</title>
<path fill="none" stroke="black" stroke-dasharray="5,2" d="M641.05,-72.72C643.19,-64.18 645.57,-54.68 647.72,-46.08"/>
<polygon fill="black" stroke="black" points="651.17,-46.7 650.21,-36.15 644.38,-45 651.17,-46.7"/>
</g>
</g>
</svg>
