<?xml version="1.0" encoding="UTF-8" standalone="no"?>
<!DOCTYPE svg PUBLIC "-//W3C//DTD SVG 1.1//EN"
 "http://www.w3.org/Graphics/SVG/1.1/DTD/svg11.dtd">
<!-- Generated by graphviz version 2.43.0 (0)
 -->
<!-- Title: %3 Pages: 1 -->
<svg width="1298pt" height="342pt"
 viewBox="0.00 0.00 1298.00 342.48" xmlns="http://www.w3.org/2000/svg" xmlns:xlink="http://www.w3.org/1999/xlink">
<g id="graph0" class="graph" transform="scale(1 1) rotate(0) translate(36 306.48)">
<title>%3</title>
<polygon fill="dimgray" stroke="transparent" points="-36,36 -36,-306.48 1262,-306.48 1262,36 -36,36"/>
<text text-anchor="middle" x="613" y="-255.28" font-family="Helvetica,sans-Serif" font-size="14.00">Sweep&#39;s Plan &amp; Progress</text>
<!-- start -->
<g id="node1" class="node">
<title>start</title>
</g>
<!-- 45ef9689&#45;4293&#45;495d&#45;9fb5&#45;97f15fd1c377 -->
<g id="node3" class="node">
<title>45ef9689&#45;4293&#45;495d&#45;9fb5&#45;97f15fd1c377</title>
<ellipse fill="#0ee832" stroke="black" cx="608.5" cy="-204.61" rx="169" ry="26.74"/>
<text text-anchor="middle" x="608.5" y="-208.41" font-family="Helvetica,sans-Serif" font-size="14.00">✓ Modify</text>
<text text-anchor="middle" x="608.5" y="-193.41" font-family="Helvetica,sans-Serif" font-size="14.00">src/components/CallToAction.tsx</text>
</g>
<!-- start&#45;&gt;45ef9689&#45;4293&#45;495d&#45;9fb5&#45;97f15fd1c377 -->
<g id="edge6" class="edge">
<title>start&#45;&gt;45ef9689&#45;4293&#45;495d&#45;9fb5&#45;97f15fd1c377</title>
<path fill="none" stroke="black" d="M388.13,-204.61C391.44,-204.61 407.41,-204.61 429.37,-204.61"/>
<polygon fill="black" stroke="black" points="429.49,-208.11 439.49,-204.61 429.49,-201.11 429.49,-208.11"/>
<text text-anchor="middle" x="413.75" y="-211.41" font-family="Helvetica,sans-Serif" font-size="14.00">Start</text>
</g>
<!-- end -->
<g id="node2" class="node">
<title>end</title>
</g>
<!-- 58dc46fc&#45;8736&#45;4e7f&#45;ae92&#45;34a69224c627 -->
<g id="node4" class="node">
<title>58dc46fc&#45;8736&#45;4e7f&#45;ae92&#45;34a69224c627</title>
<ellipse fill="white" stroke="black" cx="999.5" cy="-204.61" rx="167.67" ry="26.74"/>
<text text-anchor="middle" x="999.5" y="-208.41" font-family="Helvetica,sans-Serif" font-size="14.00">▶ Modify</text>
<text text-anchor="middle" x="999.5" y="-193.41" font-family="Helvetica,sans-Serif" font-size="14.00">src/components/PricingPage.tsx</text>
</g>
<!-- 45ef9689&#45;4293&#45;495d&#45;9fb5&#45;97f15fd1c377&#45;&gt;58dc46fc&#45;8736&#45;4e7f&#45;ae92&#45;34a69224c627 -->
<g id="edge4" class="edge">
<title>45ef9689&#45;4293&#45;495d&#45;9fb5&#45;97f15fd1c377&#45;&gt;58dc46fc&#45;8736&#45;4e7f&#45;ae92&#45;34a69224c627</title>
<path fill="none" stroke="black" d="M777.65,-204.61C792.32,-204.61 806.99,-204.61 821.66,-204.61"/>
<polygon fill="black" stroke="black" points="821.82,-208.11 831.82,-204.61 821.82,-201.11 821.82,-208.11"/>
</g>
<!-- 7f699b79&#45;ae91&#45;4960&#45;a6c6&#45;276a46bf0960 -->
<g id="node5" class="node">
<title>7f699b79&#45;ae91&#45;4960&#45;a6c6&#45;276a46bf0960</title>
<polygon fill="#ee0000" stroke="black" points="393,-140.74 0,-140.74 0,-104.74 393,-104.74 393,-140.74"/>
<text text-anchor="middle" x="196.5" y="-119.04" font-family="Helvetica,sans-Serif" font-size="14.00">✗ Ran sandbox for `src/components/CallToAction.tsx`.</text>
</g>
<!-- 45ef9689&#45;4293&#45;495d&#45;9fb5&#45;97f15fd1c377&#45;&gt;7f699b79&#45;ae91&#45;4960&#45;a6c6&#45;276a46bf0960 -->
<g id="edge1" class="edge">
<title>45ef9689&#45;4293&#45;495d&#45;9fb5&#45;97f15fd1c377&#45;&gt;7f699b79&#45;ae91&#45;4960&#45;a6c6&#45;276a46bf0960</title>
<path fill="none" stroke="black" stroke-dasharray="5,2" d="M504.27,-183.4C439.78,-170.9 357.51,-154.95 294.27,-142.69"/>
<polygon fill="black" stroke="black" points="294.77,-139.22 284.28,-140.76 293.43,-146.1 294.77,-139.22"/>
</g>
<!-- 010bd12f&#45;5e36&#45;4f29&#45;a346&#45;1b7da68132bf -->
<g id="node6" class="node">
<title>010bd12f&#45;5e36&#45;4f29&#45;a346&#45;1b7da68132bf</title>
<polygon fill="yellow" stroke="black" points="806,-140.74 411,-140.74 411,-104.74 806,-104.74 806,-140.74"/>
<text text-anchor="middle" x="608.5" y="-119.04" font-family="Helvetica,sans-Serif" font-size="14.00">⋯ Ran sandbox for `src/components/CallToAction.tsx`.</text>
</g>
<!-- 45ef9689&#45;4293&#45;495d&#45;9fb5&#45;97f15fd1c377&#45;&gt;010bd12f&#45;5e36&#45;4f29&#45;a346&#45;1b7da68132bf -->
<g id="edge3" class="edge">
<title>45ef9689&#45;4293&#45;495d&#45;9fb5&#45;97f15fd1c377&#45;&gt;010bd12f&#45;5e36&#45;4f29&#45;a346&#45;1b7da68132bf</title>
<path fill="none" stroke="black" stroke-dasharray="5,2" d="M608.5,-177.46C608.5,-169.01 608.5,-159.63 608.5,-151.1"/>
<polygon fill="black" stroke="black" points="612,-150.89 608.5,-140.89 605,-150.89 612,-150.89"/>
</g>
<!-- 58dc46fc&#45;8736&#45;4e7f&#45;ae92&#45;34a69224c627&#45;&gt;end -->
<g id="edge7" class="edge">
<title>58dc46fc&#45;8736&#45;4e7f&#45;ae92&#45;34a69224c627&#45;&gt;end</title>
<path fill="none" stroke="black" d="M1167.3,-204.61C1187.33,-204.61 1204.33,-204.61 1214.69,-204.61"/>
<polygon fill="black" stroke="black" points="1214.86,-208.11 1224.86,-204.61 1214.86,-201.11 1214.86,-208.11"/>
<text text-anchor="middle" x="1196.04" y="-211.41" font-family="Helvetica,sans-Serif" font-size="14.00">Finish</text>
</g>
<!-- 9fe88e84&#45;20e7&#45;44a7&#45;bff8&#45;f245b700b642 -->
<g id="node7" class="node">
<title>9fe88e84&#45;20e7&#45;44a7&#45;bff8&#45;f245b700b642</title>
<polygon fill="white" stroke="black" points="1213,-140.74 824,-140.74 824,-104.74 1213,-104.74 1213,-140.74"/>
<text text-anchor="middle" x="1018.5" y="-119.04" font-family="Helvetica,sans-Serif" font-size="14.00">▶ Ran sandbox for `src/components/PricingPage.tsx`.</text>
</g>
<!-- 58dc46fc&#45;8736&#45;4e7f&#45;ae92&#45;34a69224c627&#45;&gt;9fe88e84&#45;20e7&#45;44a7&#45;bff8&#45;f245b700b642 -->
<g id="edge5" class="edge">
<title>58dc46fc&#45;8736&#45;4e7f&#45;ae92&#45;34a69224c627&#45;&gt;9fe88e84&#45;20e7&#45;44a7&#45;bff8&#45;f245b700b642</title>
<path fill="none" stroke="black" stroke-dasharray="5,2" d="M1005.72,-177.46C1007.75,-168.92 1010.01,-159.42 1012.06,-150.82"/>
<polygon fill="black" stroke="black" points="1015.51,-151.43 1014.42,-140.89 1008.7,-149.81 1015.51,-151.43"/>
</g>
<!-- d96c0a1f&#45;afec&#45;4c42&#45;87a1&#45;32f69768875f -->
<g id="node8" class="node">
<title>d96c0a1f&#45;afec&#45;4c42&#45;87a1&#45;32f69768875f</title>
<ellipse fill="#0ee832" stroke="black" cx="196.5" cy="-26.87" rx="75.82" ry="26.74"/>
<text text-anchor="middle" x="196.5" y="-30.67" font-family="Helvetica,sans-Serif" font-size="14.00">✓ Modify</text>
<text text-anchor="middle" x="196.5" y="-15.67" font-family="Helvetica,sans-Serif" font-size="14.00">package.json</text>
</g>
<!-- 7f699b79&#45;ae91&#45;4960&#45;a6c6&#45;276a46bf0960&#45;&gt;d96c0a1f&#45;afec&#45;4c42&#45;87a1&#45;32f69768875f -->
<g id="edge2" class="edge">
<title>7f699b79&#45;ae91&#45;4960&#45;a6c6&#45;276a46bf0960&#45;&gt;d96c0a1f&#45;afec&#45;4c42&#45;87a1&#45;32f69768875f</title>
<path fill="none" stroke="black" d="M196.5,-104.52C196.5,-93.22 196.5,-78.01 196.5,-64.12"/>
<polygon fill="black" stroke="black" points="200,-63.84 196.5,-53.84 193,-63.84 200,-63.84"/>
<text text-anchor="middle" x="294" y="-75.54" font-family="Helvetica,sans-Serif" font-size="14.00">Additional changes required</text>
</g>
</g>
</svg>
