<?xml version="1.0" encoding="UTF-8" standalone="no"?>
<!DOCTYPE svg PUBLIC "-//W3C//DTD SVG 1.1//EN"
 "http://www.w3.org/Graphics/SVG/1.1/DTD/svg11.dtd">
<!-- Generated by graphviz version 2.43.0 (0)
 -->
<!-- Title: %3 Pages: 1 -->
<svg width="945pt" height="240pt"
 viewBox="0.00 0.00 945.00 239.74" xmlns="http://www.w3.org/2000/svg" xmlns:xlink="http://www.w3.org/1999/xlink">
<g id="graph0" class="graph" transform="scale(1 1) rotate(0) translate(36 203.74)">
<title>%3</title>
<polygon fill="white" stroke="transparent" points="-36,36 -36,-203.74 909,-203.74 909,36 -36,36"/>
<text text-anchor="middle" x="436.5" y="-152.54" font-family="Times,serif" font-size="14.00">Sweep&#39;s Plan &amp; Progress</text>
<!-- start -->
<g id="node1" class="node">
<title>start</title>
</g>
<!-- 68917235&#45;b41d&#45;4be5&#45;9515&#45;3389b03d4f89 -->
<g id="node3" class="node">
<title>68917235&#45;b41d&#45;4be5&#45;9515&#45;3389b03d4f89</title>
<ellipse fill="green" stroke="black" cx="232.5" cy="-101.87" rx="176.55" ry="26.74"/>
<text text-anchor="middle" x="232.5" y="-105.67" font-family="Times,serif" font-size="14.00">✓ Modify</text>
<text text-anchor="middle" x="232.5" y="-90.67" font-family="Times,serif" font-size="14.00">src/components/Testimonials.tsx</text>
</g>
<!-- start&#45;&gt;68917235&#45;b41d&#45;4be5&#45;9515&#45;3389b03d4f89 -->
<g id="edge4" class="edge">
<title>start&#45;&gt;68917235&#45;b41d&#45;4be5&#45;9515&#45;3389b03d4f89</title>
<path fill="none" stroke="black" d="M1.17,-101.87C4.69,-101.87 21.93,-101.87 45.54,-101.87"/>
<polygon fill="black" stroke="black" points="45.65,-105.37 55.65,-101.87 45.65,-98.37 45.65,-105.37"/>
<text text-anchor="middle" x="28.36" y="-108.67" font-family="Times,serif" font-size="14.00">Start</text>
</g>
<!-- end -->
<g id="node2" class="node">
<title>end</title>
</g>
<!-- 3e097cd4&#45;5da2&#45;425c&#45;a0af&#45;749015c3131d -->
<g id="node4" class="node">
<title>3e097cd4&#45;5da2&#45;425c&#45;a0af&#45;749015c3131d</title>
<ellipse fill="white" stroke="black" cx="627.5" cy="-101.87" rx="182.37" ry="26.74"/>
<text text-anchor="middle" x="627.5" y="-105.67" font-family="Times,serif" font-size="14.00">▶ Create</text>
<text text-anchor="middle" x="627.5" y="-90.67" font-family="Times,serif" font-size="14.00">src/__tests__/Testimonials.test.tsx</text>
</g>
<!-- 68917235&#45;b41d&#45;4be5&#45;9515&#45;3389b03d4f89&#45;&gt;3e097cd4&#45;5da2&#45;425c&#45;a0af&#45;749015c3131d -->
<g id="edge2" class="edge">
<title>68917235&#45;b41d&#45;4be5&#45;9515&#45;3389b03d4f89&#45;&gt;3e097cd4&#45;5da2&#45;425c&#45;a0af&#45;749015c3131d</title>
<path fill="none" stroke="black" d="M409.56,-101.87C417.93,-101.87 426.3,-101.87 434.67,-101.87"/>
<polygon fill="black" stroke="black" points="434.89,-105.37 444.89,-101.87 434.89,-98.37 434.89,-105.37"/>
</g>
<!-- bf21c9df&#45;f016&#45;459c&#45;9920&#45;c302cebc61d5 -->
<g id="node5" class="node">
<title>bf21c9df&#45;f016&#45;459c&#45;9920&#45;c302cebc61d5</title>
<polygon fill="yellow" stroke="black" points="357.5,-38 107.5,-38 107.5,0 357.5,0 357.5,-38"/>
<text text-anchor="middle" x="232.5" y="-22.8" font-family="Times,serif" font-size="14.00">⋯ Check</text>
<text text-anchor="middle" x="232.5" y="-7.8" font-family="Times,serif" font-size="14.00">src/components/Testimonials.tsx</text>
</g>
<!-- 68917235&#45;b41d&#45;4be5&#45;9515&#45;3389b03d4f89&#45;&gt;bf21c9df&#45;f016&#45;459c&#45;9920&#45;c302cebc61d5 -->
<g id="edge1" class="edge">
<title>68917235&#45;b41d&#45;4be5&#45;9515&#45;3389b03d4f89&#45;&gt;bf21c9df&#45;f016&#45;459c&#45;9920&#45;c302cebc61d5</title>
<path fill="none" stroke="black" stroke-dasharray="5,2" d="M232.5,-74.84C232.5,-66.3 232.5,-56.78 232.5,-48.1"/>
<polygon fill="black" stroke="black" points="236,-48.05 232.5,-38.05 229,-48.05 236,-48.05"/>
</g>
<!-- 3e097cd4&#45;5da2&#45;425c&#45;a0af&#45;749015c3131d&#45;&gt;end -->
<g id="edge5" class="edge">
<title>3e097cd4&#45;5da2&#45;425c&#45;a0af&#45;749015c3131d&#45;&gt;end</title>
<path fill="none" stroke="black" d="M810.04,-101.87C832.07,-101.87 850.66,-101.87 861.69,-101.87"/>
<polygon fill="black" stroke="black" points="861.81,-105.37 871.81,-101.87 861.81,-98.37 861.81,-105.37"/>
<text text-anchor="middle" x="840.97" y="-108.67" font-family="Times,serif" font-size="14.00">Finish</text>
</g>
<!-- a26aeefb&#45;6a6e&#45;441e&#45;a79b&#45;c2beb0109e87 -->
<g id="node6" class="node">
<title>a26aeefb&#45;6a6e&#45;441e&#45;a79b&#45;c2beb0109e87</title>
<polygon fill="white" stroke="black" points="756.5,-38 498.5,-38 498.5,0 756.5,0 756.5,-38"/>
<text text-anchor="middle" x="627.5" y="-22.8" font-family="Times,serif" font-size="14.00">▶ Check</text>
<text text-anchor="middle" x="627.5" y="-7.8" font-family="Times,serif" font-size="14.00">src/__tests__/Testimonials.test.tsx</text>
</g>
<!-- 3e097cd4&#45;5da2&#45;425c&#45;a0af&#45;749015c3131d&#45;&gt;a26aeefb&#45;6a6e&#45;441e&#45;a79b&#45;c2beb0109e87 -->
<g id="edge3" class="edge">
<title>3e097cd4&#45;5da2&#45;425c&#45;a0af&#45;749015c3131d&#45;&gt;a26aeefb&#45;6a6e&#45;441e&#45;a79b&#45;c2beb0109e87</title>
<path fill="none" stroke="black" stroke-dasharray="5,2" d="M627.5,-74.84C627.5,-66.3 627.5,-56.78 627.5,-48.1"/>
<polygon fill="black" stroke="black" points="631,-48.05 627.5,-38.05 624,-48.05 631,-48.05"/>
</g>
</g>
</svg>
