<?xml version="1.0" encoding="UTF-8" standalone="no"?>
<!DOCTYPE svg PUBLIC "-//W3C//DTD SVG 1.1//EN"
 "http://www.w3.org/Graphics/SVG/1.1/DTD/svg11.dtd">
<!-- Generated by graphviz version 2.43.0 (0)
 -->
<!-- Title: %3 Pages: 1 -->
<svg width="1635pt" height="238pt"
 viewBox="0.00 0.00 1634.50 237.74" xmlns="http://www.w3.org/2000/svg" xmlns:xlink="http://www.w3.org/1999/xlink">
<g id="graph0" class="graph" transform="scale(1 1) rotate(0) translate(36 201.74)">
<title>%3</title>
<polygon fill="dimgray" stroke="transparent" points="-36,36 -36,-201.74 1598.5,-201.74 1598.5,36 -36,36"/>
<text text-anchor="middle" x="781.25" y="-150.54" font-family="Helvetica,sans-Serif" font-size="14.00">Sweep&#39;s Plan &amp; Progress</text>
<!-- start -->
<g id="node1" class="node">
<title>start</title>
</g>
<!-- f328038b&#45;c6a4&#45;4568&#45;a9e4&#45;9d9801a02cf1 -->
<g id="node3" class="node">
<title>f328038b&#45;c6a4&#45;4568&#45;a9e4&#45;9d9801a02cf1</title>
<ellipse fill="yellow" stroke="black" cx="254.5" cy="-99.87" rx="145.83" ry="26.74"/>
<text text-anchor="middle" x="254.5" y="-103.67" font-family="Helvetica,sans-Serif" font-size="14.00">⋯ Create</text>
<text text-anchor="middle" x="254.5" y="-88.67" font-family="Helvetica,sans-Serif" font-size="14.00">src/components/Signup.tsx</text>
</g>
<!-- start&#45;&gt;f328038b&#45;c6a4&#45;4568&#45;a9e4&#45;9d9801a02cf1 -->
<g id="edge8" class="edge">
<title>start&#45;&gt;f328038b&#45;c6a4&#45;4568&#45;a9e4&#45;9d9801a02cf1</title>
<path fill="none" stroke="black" d="M57.07,-99.87C60.26,-99.87 76.6,-99.87 98.63,-99.87"/>
<polygon fill="black" stroke="black" points="98.76,-103.37 108.76,-99.87 98.76,-96.37 98.76,-103.37"/>
<text text-anchor="middle" x="82.92" y="-106.67" font-family="Helvetica,sans-Serif" font-size="14.00">Start</text>
</g>
<!-- end -->
<g id="node2" class="node">
<title>end</title>
</g>
<!-- 2c01fe13&#45;bc0f&#45;488b&#45;9730&#45;6e7578e0a5ea -->
<g id="node4" class="node">
<title>2c01fe13&#45;bc0f&#45;488b&#45;9730&#45;6e7578e0a5ea</title>
<ellipse fill="white" stroke="black" cx="558.5" cy="-99.87" rx="67.35" ry="26.74"/>
<text text-anchor="middle" x="558.5" y="-103.67" font-family="Helvetica,sans-Serif" font-size="14.00">▶ Modify</text>
<text text-anchor="middle" x="558.5" y="-88.67" font-family="Helvetica,sans-Serif" font-size="14.00">src/App.tsx</text>
</g>
<!-- f328038b&#45;c6a4&#45;4568&#45;a9e4&#45;9d9801a02cf1&#45;&gt;2c01fe13&#45;bc0f&#45;488b&#45;9730&#45;6e7578e0a5ea -->
<g id="edge2" class="edge">
<title>f328038b&#45;c6a4&#45;4568&#45;a9e4&#45;9d9801a02cf1&#45;&gt;2c01fe13&#45;bc0f&#45;488b&#45;9730&#45;6e7578e0a5ea</title>
<path fill="none" stroke="black" d="M400.27,-99.87C427.12,-99.87 453.98,-99.87 480.83,-99.87"/>
<polygon fill="black" stroke="black" points="481.13,-103.37 491.13,-99.87 481.13,-96.37 481.13,-103.37"/>
</g>
<!-- bbf6fcff&#45;a656&#45;4dbc&#45;b7ad&#45;f477c9791469 -->
<g id="node7" class="node">
<title>bbf6fcff&#45;a656&#45;4dbc&#45;b7ad&#45;f477c9791469</title>
<polygon fill="white" stroke="black" points="397,-36 0,-36 0,0 397,0 397,-36"/>
<text text-anchor="middle" x="198.5" y="-14.3" font-family="Helvetica,sans-Serif" font-size="14.00">▶ Run GitHub Actions for `src/components/Signup.tsx`</text>
</g>
<!-- f328038b&#45;c6a4&#45;4568&#45;a9e4&#45;9d9801a02cf1&#45;&gt;bbf6fcff&#45;a656&#45;4dbc&#45;b7ad&#45;f477c9791469 -->
<g id="edge1" class="edge">
<title>f328038b&#45;c6a4&#45;4568&#45;a9e4&#45;9d9801a02cf1&#45;&gt;bbf6fcff&#45;a656&#45;4dbc&#45;b7ad&#45;f477c9791469</title>
<path fill="none" stroke="black" stroke-dasharray="5,2" d="M236.47,-73.16C230.08,-64.04 222.88,-53.77 216.49,-44.65"/>
<polygon fill="black" stroke="black" points="219.26,-42.52 210.66,-36.34 213.53,-46.53 219.26,-42.52"/>
</g>
<!-- fd0a7469&#45;b4f3&#45;426d&#45;b921&#45;7d97a4958a3b -->
<g id="node5" class="node">
<title>fd0a7469&#45;b4f3&#45;426d&#45;b921&#45;7d97a4958a3b</title>
<ellipse fill="white" stroke="black" cx="918.5" cy="-99.87" rx="145.83" ry="26.74"/>
<text text-anchor="middle" x="918.5" y="-103.67" font-family="Helvetica,sans-Serif" font-size="14.00">▶ Modify</text>
<text text-anchor="middle" x="918.5" y="-88.67" font-family="Helvetica,sans-Serif" font-size="14.00">src/components/Navbar.tsx</text>
</g>
<!-- 2c01fe13&#45;bc0f&#45;488b&#45;9730&#45;6e7578e0a5ea&#45;&gt;fd0a7469&#45;b4f3&#45;426d&#45;b921&#45;7d97a4958a3b -->
<g id="edge4" class="edge">
<title>2c01fe13&#45;bc0f&#45;488b&#45;9730&#45;6e7578e0a5ea&#45;&gt;fd0a7469&#45;b4f3&#45;426d&#45;b921&#45;7d97a4958a3b</title>
<path fill="none" stroke="black" d="M626,-99.87C671.59,-99.87 717.19,-99.87 762.78,-99.87"/>
<polygon fill="black" stroke="black" points="762.82,-103.37 772.82,-99.87 762.82,-96.37 762.82,-103.37"/>
</g>
<!-- c4eab1f9&#45;8010&#45;4303&#45;9ba0&#45;ee0100509298 -->
<g id="node8" class="node">
<title>c4eab1f9&#45;8010&#45;4303&#45;9ba0&#45;ee0100509298</title>
<polygon fill="white" stroke="black" points="701.5,-36 415.5,-36 415.5,0 701.5,0 701.5,-36"/>
<text text-anchor="middle" x="558.5" y="-14.3" font-family="Helvetica,sans-Serif" font-size="14.00">▶ Run GitHub Actions for `src/App.tsx`</text>
</g>
<!-- 2c01fe13&#45;bc0f&#45;488b&#45;9730&#45;6e7578e0a5ea&#45;&gt;c4eab1f9&#45;8010&#45;4303&#45;9ba0&#45;ee0100509298 -->
<g id="edge3" class="edge">
<title>2c01fe13&#45;bc0f&#45;488b&#45;9730&#45;6e7578e0a5ea&#45;&gt;c4eab1f9&#45;8010&#45;4303&#45;9ba0&#45;ee0100509298</title>
<path fill="none" stroke="black" stroke-dasharray="5,2" d="M558.5,-72.72C558.5,-64.27 558.5,-54.89 558.5,-46.36"/>
<polygon fill="black" stroke="black" points="562,-46.15 558.5,-36.15 555,-46.15 562,-46.15"/>
</g>
<!-- 33758217&#45;d876&#45;4c41&#45;bc01&#45;8a83883ded65 -->
<g id="node6" class="node">
<title>33758217&#45;d876&#45;4c41&#45;bc01&#45;8a83883ded65</title>
<ellipse fill="white" stroke="black" cx="1307.5" cy="-99.87" rx="166.75" ry="26.74"/>
<text text-anchor="middle" x="1307.5" y="-103.67" font-family="Helvetica,sans-Serif" font-size="14.00">▶ Create</text>
<text text-anchor="middle" x="1307.5" y="-88.67" font-family="Helvetica,sans-Serif" font-size="14.00">src/components/Signup.test.tsx</text>
</g>
<!-- fd0a7469&#45;b4f3&#45;426d&#45;b921&#45;7d97a4958a3b&#45;&gt;33758217&#45;d876&#45;4c41&#45;bc01&#45;8a83883ded65 -->
<g id="edge6" class="edge">
<title>fd0a7469&#45;b4f3&#45;426d&#45;b921&#45;7d97a4958a3b&#45;&gt;33758217&#45;d876&#45;4c41&#45;bc01&#45;8a83883ded65</title>
<path fill="none" stroke="black" d="M1064.38,-99.87C1086.34,-99.87 1108.3,-99.87 1130.26,-99.87"/>
<polygon fill="black" stroke="black" points="1130.35,-103.37 1140.35,-99.87 1130.35,-96.37 1130.35,-103.37"/>
</g>
<!-- 496fd8d3&#45;0c62&#45;49d2&#45;8f82&#45;c0155ae2d35e -->
<g id="node9" class="node">
<title>496fd8d3&#45;0c62&#45;49d2&#45;8f82&#45;c0155ae2d35e</title>
<polygon fill="white" stroke="black" points="1117,-36 720,-36 720,0 1117,0 1117,-36"/>
<text text-anchor="middle" x="918.5" y="-14.3" font-family="Helvetica,sans-Serif" font-size="14.00">▶ Run GitHub Actions for `src/components/Navbar.tsx`</text>
</g>
<!-- fd0a7469&#45;b4f3&#45;426d&#45;b921&#45;7d97a4958a3b&#45;&gt;496fd8d3&#45;0c62&#45;49d2&#45;8f82&#45;c0155ae2d35e -->
<g id="edge5" class="edge">
<title>fd0a7469&#45;b4f3&#45;426d&#45;b921&#45;7d97a4958a3b&#45;&gt;496fd8d3&#45;0c62&#45;49d2&#45;8f82&#45;c0155ae2d35e</title>
<path fill="none" stroke="black" stroke-dasharray="5,2" d="M918.5,-72.72C918.5,-64.27 918.5,-54.89 918.5,-46.36"/>
<polygon fill="black" stroke="black" points="922,-46.15 918.5,-36.15 915,-46.15 922,-46.15"/>
</g>
<!-- 33758217&#45;d876&#45;4c41&#45;bc01&#45;8a83883ded65&#45;&gt;end -->
<g id="edge9" class="edge">
<title>33758217&#45;d876&#45;4c41&#45;bc01&#45;8a83883ded65&#45;&gt;end</title>
<path fill="none" stroke="black" d="M1474.56,-99.87C1494.5,-99.87 1511.42,-99.87 1521.74,-99.87"/>
<polygon fill="black" stroke="black" points="1521.86,-103.37 1531.86,-99.87 1521.86,-96.37 1521.86,-103.37"/>
<text text-anchor="middle" x="1503.19" y="-106.67" font-family="Helvetica,sans-Serif" font-size="14.00">Finish</text>
</g>
<!-- 165481bd&#45;130f&#45;4bfc&#45;bda4&#45;da242de8e7d2 -->
<g id="node10" class="node">
<title>165481bd&#45;130f&#45;4bfc&#45;bda4&#45;da242de8e7d2</title>
<polygon fill="white" stroke="black" points="1562.5,-36 1134.5,-36 1134.5,0 1562.5,0 1562.5,-36"/>
<text text-anchor="middle" x="1348.5" y="-14.3" font-family="Helvetica,sans-Serif" font-size="14.00">▶ Run GitHub Actions for `src/components/Signup.test.tsx`</text>
</g>
<!-- 33758217&#45;d876&#45;4c41&#45;bc01&#45;8a83883ded65&#45;&gt;165481bd&#45;130f&#45;4bfc&#45;bda4&#45;da242de8e7d2 -->
<g id="edge7" class="edge">
<title>33758217&#45;d876&#45;4c41&#45;bc01&#45;8a83883ded65&#45;&gt;165481bd&#45;130f&#45;4bfc&#45;bda4&#45;da242de8e7d2</title>
<path fill="none" stroke="black" stroke-dasharray="5,2" d="M1320.92,-72.72C1325.45,-63.9 1330.51,-54.05 1335.04,-45.23"/>
<polygon fill="black" stroke="black" points="1338.25,-46.64 1339.7,-36.15 1332.02,-43.44 1338.25,-46.64"/>
</g>
</g>
</svg>
