<?xml version="1.0" encoding="UTF-8" standalone="no"?>
<!DOCTYPE svg PUBLIC "-//W3C//DTD SVG 1.1//EN"
 "http://www.w3.org/Graphics/SVG/1.1/DTD/svg11.dtd">
<!-- Generated by graphviz version 2.43.0 (0)
 -->
<!-- Title: %3 Pages: 1 -->
<svg width="1639pt" height="238pt"
 viewBox="0.00 0.00 1638.50 237.74" xmlns="http://www.w3.org/2000/svg" xmlns:xlink="http://www.w3.org/1999/xlink">
<g id="graph0" class="graph" transform="scale(1 1) rotate(0) translate(36 201.74)">
<title>%3</title>
<polygon fill="dimgray" stroke="transparent" points="-36,36 -36,-201.74 1602.5,-201.74 1602.5,36 -36,36"/>
<text text-anchor="middle" x="783.25" y="-150.54" font-family="Helvetica,sans-Serif" font-size="14.00">Sweep&#39;s Plan &amp; Progress</text>
<!-- start -->
<g id="node1" class="node">
<title>start</title>
</g>
<!-- f328038b&#45;c6a4&#45;4568&#45;a9e4&#45;9d9801a02cf1 -->
<g id="node3" class="node">
<title>f328038b&#45;c6a4&#45;4568&#45;a9e4&#45;9d9801a02cf1</title>
<ellipse fill="#0ee832" stroke="black" cx="257.5" cy="-99.87" rx="145.83" ry="26.74"/>
<text text-anchor="middle" x="257.5" y="-103.67" font-family="Helvetica,sans-Serif" font-size="14.00">✓ Create</text>
<text text-anchor="middle" x="257.5" y="-88.67" font-family="Helvetica,sans-Serif" font-size="14.00">src/components/Signup.tsx</text>
</g>
<!-- start&#45;&gt;f328038b&#45;c6a4&#45;4568&#45;a9e4&#45;9d9801a02cf1 -->
<g id="edge8" class="edge">
<title>start&#45;&gt;f328038b&#45;c6a4&#45;4568&#45;a9e4&#45;9d9801a02cf1</title>
<path fill="none" stroke="black" d="M60.07,-99.87C63.26,-99.87 79.6,-99.87 101.63,-99.87"/>
<polygon fill="black" stroke="black" points="101.76,-103.37 111.76,-99.87 101.76,-96.37 101.76,-103.37"/>
<text text-anchor="middle" x="85.92" y="-106.67" font-family="Helvetica,sans-Serif" font-size="14.00">Start</text>
</g>
<!-- end -->
<g id="node2" class="node">
<title>end</title>
</g>
<!-- 2c01fe13&#45;bc0f&#45;488b&#45;9730&#45;6e7578e0a5ea -->
<g id="node4" class="node">
<title>2c01fe13&#45;bc0f&#45;488b&#45;9730&#45;6e7578e0a5ea</title>
<ellipse fill="white" stroke="black" cx="562.5" cy="-99.87" rx="67.35" ry="26.74"/>
<text text-anchor="middle" x="562.5" y="-103.67" font-family="Helvetica,sans-Serif" font-size="14.00">▶ Modify</text>
<text text-anchor="middle" x="562.5" y="-88.67" font-family="Helvetica,sans-Serif" font-size="14.00">src/App.tsx</text>
</g>
<!-- f328038b&#45;c6a4&#45;4568&#45;a9e4&#45;9d9801a02cf1&#45;&gt;2c01fe13&#45;bc0f&#45;488b&#45;9730&#45;6e7578e0a5ea -->
<g id="edge2" class="edge">
<title>f328038b&#45;c6a4&#45;4568&#45;a9e4&#45;9d9801a02cf1&#45;&gt;2c01fe13&#45;bc0f&#45;488b&#45;9730&#45;6e7578e0a5ea</title>
<path fill="none" stroke="black" d="M403.45,-99.87C430.65,-99.87 457.86,-99.87 485.07,-99.87"/>
<polygon fill="black" stroke="black" points="485.09,-103.37 495.09,-99.87 485.09,-96.37 485.09,-103.37"/>
</g>
<!-- bbf6fcff&#45;a656&#45;4dbc&#45;b7ad&#45;f477c9791469 -->
<g id="node7" class="node">
<title>bbf6fcff&#45;a656&#45;4dbc&#45;b7ad&#45;f477c9791469</title>
<polygon fill="yellow" stroke="black" points="401,-36 0,-36 0,0 401,0 401,-36"/>
<text text-anchor="middle" x="200.5" y="-14.3" font-family="Helvetica,sans-Serif" font-size="14.00">⋯ Run GitHub Actions for `src/components/Signup.tsx`</text>
</g>
<!-- f328038b&#45;c6a4&#45;4568&#45;a9e4&#45;9d9801a02cf1&#45;&gt;bbf6fcff&#45;a656&#45;4dbc&#45;b7ad&#45;f477c9791469 -->
<g id="edge1" class="edge">
<title>f328038b&#45;c6a4&#45;4568&#45;a9e4&#45;9d9801a02cf1&#45;&gt;bbf6fcff&#45;a656&#45;4dbc&#45;b7ad&#45;f477c9791469</title>
<path fill="none" stroke="black" stroke-dasharray="5,2" d="M239.15,-73.16C232.64,-64.04 225.32,-53.77 218.81,-44.65"/>
<polygon fill="black" stroke="black" points="221.53,-42.44 212.87,-36.34 215.83,-46.51 221.53,-42.44"/>
</g>
<!-- fd0a7469&#45;b4f3&#45;426d&#45;b921&#45;7d97a4958a3b -->
<g id="node5" class="node">
<title>fd0a7469&#45;b4f3&#45;426d&#45;b921&#45;7d97a4958a3b</title>
<ellipse fill="white" stroke="black" cx="922.5" cy="-99.87" rx="145.83" ry="26.74"/>
<text text-anchor="middle" x="922.5" y="-103.67" font-family="Helvetica,sans-Serif" font-size="14.00">▶ Modify</text>
<text text-anchor="middle" x="922.5" y="-88.67" font-family="Helvetica,sans-Serif" font-size="14.00">src/components/Navbar.tsx</text>
</g>
<!-- 2c01fe13&#45;bc0f&#45;488b&#45;9730&#45;6e7578e0a5ea&#45;&gt;fd0a7469&#45;b4f3&#45;426d&#45;b921&#45;7d97a4958a3b -->
<g id="edge4" class="edge">
<title>2c01fe13&#45;bc0f&#45;488b&#45;9730&#45;6e7578e0a5ea&#45;&gt;fd0a7469&#45;b4f3&#45;426d&#45;b921&#45;7d97a4958a3b</title>
<path fill="none" stroke="black" d="M630,-99.87C675.59,-99.87 721.19,-99.87 766.78,-99.87"/>
<polygon fill="black" stroke="black" points="766.82,-103.37 776.82,-99.87 766.82,-96.37 766.82,-103.37"/>
</g>
<!-- c4eab1f9&#45;8010&#45;4303&#45;9ba0&#45;ee0100509298 -->
<g id="node8" class="node">
<title>c4eab1f9&#45;8010&#45;4303&#45;9ba0&#45;ee0100509298</title>
<polygon fill="white" stroke="black" points="705.5,-36 419.5,-36 419.5,0 705.5,0 705.5,-36"/>
<text text-anchor="middle" x="562.5" y="-14.3" font-family="Helvetica,sans-Serif" font-size="14.00">▶ Run GitHub Actions for `src/App.tsx`</text>
</g>
<!-- 2c01fe13&#45;bc0f&#45;488b&#45;9730&#45;6e7578e0a5ea&#45;&gt;c4eab1f9&#45;8010&#45;4303&#45;9ba0&#45;ee0100509298 -->
<g id="edge3" class="edge">
<title>2c01fe13&#45;bc0f&#45;488b&#45;9730&#45;6e7578e0a5ea&#45;&gt;c4eab1f9&#45;8010&#45;4303&#45;9ba0&#45;ee0100509298</title>
<path fill="none" stroke="black" stroke-dasharray="5,2" d="M562.5,-72.72C562.5,-64.27 562.5,-54.89 562.5,-46.36"/>
<polygon fill="black" stroke="black" points="566,-46.15 562.5,-36.15 559,-46.15 566,-46.15"/>
</g>
<!-- 33758217&#45;d876&#45;4c41&#45;bc01&#45;8a83883ded65 -->
<g id="node6" class="node">
<title>33758217&#45;d876&#45;4c41&#45;bc01&#45;8a83883ded65</title>
<ellipse fill="white" stroke="black" cx="1311.5" cy="-99.87" rx="166.75" ry="26.74"/>
<text text-anchor="middle" x="1311.5" y="-103.67" font-family="Helvetica,sans-Serif" font-size="14.00">▶ Create</text>
<text text-anchor="middle" x="1311.5" y="-88.67" font-family="Helvetica,sans-Serif" font-size="14.00">src/components/Signup.test.tsx</text>
</g>
<!-- fd0a7469&#45;b4f3&#45;426d&#45;b921&#45;7d97a4958a3b&#45;&gt;33758217&#45;d876&#45;4c41&#45;bc01&#45;8a83883ded65 -->
<g id="edge6" class="edge">
<title>fd0a7469&#45;b4f3&#45;426d&#45;b921&#45;7d97a4958a3b&#45;&gt;33758217&#45;d876&#45;4c41&#45;bc01&#45;8a83883ded65</title>
<path fill="none" stroke="black" d="M1068.38,-99.87C1090.34,-99.87 1112.3,-99.87 1134.26,-99.87"/>
<polygon fill="black" stroke="black" points="1134.35,-103.37 1144.35,-99.87 1134.35,-96.37 1134.35,-103.37"/>
</g>
<!-- 496fd8d3&#45;0c62&#45;49d2&#45;8f82&#45;c0155ae2d35e -->
<g id="node9" class="node">
<title>496fd8d3&#45;0c62&#45;49d2&#45;8f82&#45;c0155ae2d35e</title>
<polygon fill="white" stroke="black" points="1121,-36 724,-36 724,0 1121,0 1121,-36"/>
<text text-anchor="middle" x="922.5" y="-14.3" font-family="Helvetica,sans-Serif" font-size="14.00">▶ Run GitHub Actions for `src/components/Navbar.tsx`</text>
</g>
<!-- fd0a7469&#45;b4f3&#45;426d&#45;b921&#45;7d97a4958a3b&#45;&gt;496fd8d3&#45;0c62&#45;49d2&#45;8f82&#45;c0155ae2d35e -->
<g id="edge5" class="edge">
<title>fd0a7469&#45;b4f3&#45;426d&#45;b921&#45;7d97a4958a3b&#45;&gt;496fd8d3&#45;0c62&#45;49d2&#45;8f82&#45;c0155ae2d35e</title>
<path fill="none" stroke="black" stroke-dasharray="5,2" d="M922.5,-72.72C922.5,-64.27 922.5,-54.89 922.5,-46.36"/>
<polygon fill="black" stroke="black" points="926,-46.15 922.5,-36.15 919,-46.15 926,-46.15"/>
</g>
<!-- 33758217&#45;d876&#45;4c41&#45;bc01&#45;8a83883ded65&#45;&gt;end -->
<g id="edge9" class="edge">
<title>33758217&#45;d876&#45;4c41&#45;bc01&#45;8a83883ded65&#45;&gt;end</title>
<path fill="none" stroke="black" d="M1478.56,-99.87C1498.5,-99.87 1515.42,-99.87 1525.74,-99.87"/>
<polygon fill="black" stroke="black" points="1525.86,-103.37 1535.86,-99.87 1525.86,-96.37 1525.86,-103.37"/>
<text text-anchor="middle" x="1507.19" y="-106.67" font-family="Helvetica,sans-Serif" font-size="14.00">Finish</text>
</g>
<!-- 165481bd&#45;130f&#45;4bfc&#45;bda4&#45;da242de8e7d2 -->
<g id="node10" class="node">
<title>165481bd&#45;130f&#45;4bfc&#45;bda4&#45;da242de8e7d2</title>
<polygon fill="white" stroke="black" points="1566.5,-36 1138.5,-36 1138.5,0 1566.5,0 1566.5,-36"/>
<text text-anchor="middle" x="1352.5" y="-14.3" font-family="Helvetica,sans-Serif" font-size="14.00">▶ Run GitHub Actions for `src/components/Signup.test.tsx`</text>
</g>
<!-- 33758217&#45;d876&#45;4c41&#45;bc01&#45;8a83883ded65&#45;&gt;165481bd&#45;130f&#45;4bfc&#45;bda4&#45;da242de8e7d2 -->
<g id="edge7" class="edge">
<title>33758217&#45;d876&#45;4c41&#45;bc01&#45;8a83883ded65&#45;&gt;165481bd&#45;130f&#45;4bfc&#45;bda4&#45;da242de8e7d2</title>
<path fill="none" stroke="black" stroke-dasharray="5,2" d="M1324.92,-72.72C1329.45,-63.9 1334.51,-54.05 1339.04,-45.23"/>
<polygon fill="black" stroke="black" points="1342.25,-46.64 1343.7,-36.15 1336.02,-43.44 1342.25,-46.64"/>
</g>
</g>
</svg>
