<?xml version="1.0" encoding="UTF-8" standalone="no"?>
<!DOCTYPE svg PUBLIC "-//W3C//DTD SVG 1.1//EN"
 "http://www.w3.org/Graphics/SVG/1.1/DTD/svg11.dtd">
<!-- Generated by graphviz version 2.43.0 (0)
 -->
<!-- Title: %3 Pages: 1 -->
<svg width="543pt" height="240pt"
 viewBox="0.00 0.00 543.00 239.74" xmlns="http://www.w3.org/2000/svg" xmlns:xlink="http://www.w3.org/1999/xlink">
<g id="graph0" class="graph" transform="scale(1 1) rotate(0) translate(36 203.74)">
<title>%3</title>
<polygon fill="white" stroke="transparent" points="-36,36 -36,-203.74 507,-203.74 507,36 -36,36"/>
<text text-anchor="middle" x="235.5" y="-152.54" font-family="Times,serif" font-size="14.00">Sweep&#39;s Plan &amp; Progress</text>
<!-- start -->
<g id="node1" class="node">
<title>start</title>
</g>
<!-- c5453364&#45;9293&#45;475d&#45;b5cc&#45;dc768e9df08b -->
<g id="node3" class="node">
<title>c5453364&#45;9293&#45;475d&#45;b5cc&#45;dc768e9df08b</title>
<ellipse fill="yellow" stroke="black" cx="231.5" cy="-101.87" rx="176.14" ry="26.74"/>
<text text-anchor="middle" x="231.5" y="-105.67" font-family="Times,serif" font-size="14.00">⋯ Modify</text>
<text text-anchor="middle" x="231.5" y="-90.67" font-family="Times,serif" font-size="14.00">src/components/CallToAction.tsx</text>
</g>
<!-- start&#45;&gt;c5453364&#45;9293&#45;475d&#45;b5cc&#45;dc768e9df08b -->
<g id="edge2" class="edge">
<title>start&#45;&gt;c5453364&#45;9293&#45;475d&#45;b5cc&#45;dc768e9df08b</title>
<path fill="none" stroke="black" d="M1.16,-101.87C4.67,-101.87 21.84,-101.87 45.35,-101.87"/>
<polygon fill="black" stroke="black" points="45.41,-105.37 55.41,-101.87 45.41,-98.37 45.41,-105.37"/>
<text text-anchor="middle" x="28.22" y="-108.67" font-family="Times,serif" font-size="14.00">Start</text>
</g>
<!-- end -->
<g id="node2" class="node">
<title>end</title>
</g>
<!-- c5453364&#45;9293&#45;475d&#45;b5cc&#45;dc768e9df08b&#45;&gt;end -->
<g id="edge3" class="edge">
<title>c5453364&#45;9293&#45;475d&#45;b5cc&#45;dc768e9df08b&#45;&gt;end</title>
<path fill="none" stroke="black" d="M407.71,-101.87C429.77,-101.87 448.48,-101.87 459.59,-101.87"/>
<polygon fill="black" stroke="black" points="459.8,-105.37 469.8,-101.87 459.8,-98.37 459.8,-105.37"/>
<text text-anchor="middle" x="438.78" y="-108.67" font-family="Times,serif" font-size="14.00">Finish</text>
</g>
<!-- 23feba99&#45;20e6&#45;4665&#45;b5b9&#45;df4e60ace556 -->
<g id="node4" class="node">
<title>23feba99&#45;20e6&#45;4665&#45;b5b9&#45;df4e60ace556</title>
<polygon fill="white" stroke="black" points="356,-38 107,-38 107,0 356,0 356,-38"/>
<text text-anchor="middle" x="231.5" y="-22.8" font-family="Times,serif" font-size="14.00">▶ Check</text>
<text text-anchor="middle" x="231.5" y="-7.8" font-family="Times,serif" font-size="14.00">src/components/CallToAction.tsx</text>
</g>
<!-- c5453364&#45;9293&#45;475d&#45;b5cc&#45;dc768e9df08b&#45;&gt;23feba99&#45;20e6&#45;4665&#45;b5b9&#45;df4e60ace556 -->
<g id="edge1" class="edge">
<title>c5453364&#45;9293&#45;475d&#45;b5cc&#45;dc768e9df08b&#45;&gt;23feba99&#45;20e6&#45;4665&#45;b5b9&#45;df4e60ace556</title>
<path fill="none" stroke="black" stroke-dasharray="5,2" d="M231.5,-74.84C231.5,-66.3 231.5,-56.78 231.5,-48.1"/>
<polygon fill="black" stroke="black" points="235,-48.05 231.5,-38.05 228,-48.05 235,-48.05"/>
</g>
</g>
</svg>
