<?xml version="1.0" encoding="UTF-8" standalone="no"?>
<!DOCTYPE svg PUBLIC "-//W3C//DTD SVG 1.1//EN"
 "http://www.w3.org/Graphics/SVG/1.1/DTD/svg11.dtd">
<!-- Generated by graphviz version 2.43.0 (0)
 -->
<!-- Title: %3 Pages: 1 -->
<svg width="934pt" height="238pt"
 viewBox="0.00 0.00 934.00 237.74" xmlns="http://www.w3.org/2000/svg" xmlns:xlink="http://www.w3.org/1999/xlink">
<g id="graph0" class="graph" transform="scale(1 1) rotate(0) translate(36 201.74)">
<title>%3</title>
<polygon fill="dimgray" stroke="transparent" points="-36,36 -36,-201.74 898,-201.74 898,36 -36,36"/>
<text text-anchor="middle" x="431" y="-150.54" font-family="Helvetica,sans-Serif" font-size="14.00">Sweep&#39;s Plan &amp; Progress</text>
<!-- start -->
<g id="node1" class="node">
<title>start</title>
</g>
<!-- af75821d&#45;a06b&#45;46fb&#45;9782&#45;214ea54801a7 -->
<g id="node3" class="node">
<title>af75821d&#45;a06b&#45;46fb&#45;9782&#45;214ea54801a7</title>
<ellipse fill="#0ee832" stroke="black" cx="257" cy="-99.87" rx="169" ry="26.74"/>
<text text-anchor="middle" x="257" y="-103.67" font-family="Helvetica,sans-Serif" font-size="14.00">✓ Modify</text>
<text text-anchor="middle" x="257" y="-88.67" font-family="Helvetica,sans-Serif" font-size="14.00">src/components/CallToAction.tsx</text>
</g>
<!-- start&#45;&gt;af75821d&#45;a06b&#45;46fb&#45;9782&#45;214ea54801a7 -->
<g id="edge4" class="edge">
<title>start&#45;&gt;af75821d&#45;a06b&#45;46fb&#45;9782&#45;214ea54801a7</title>
<path fill="none" stroke="black" d="M36.63,-99.87C39.94,-99.87 55.91,-99.87 77.87,-99.87"/>
<polygon fill="black" stroke="black" points="77.99,-103.37 87.99,-99.87 77.99,-96.37 77.99,-103.37"/>
<text text-anchor="middle" x="62.25" y="-106.67" font-family="Helvetica,sans-Serif" font-size="14.00">Start</text>
</g>
<!-- end -->
<g id="node2" class="node">
<title>end</title>
</g>
<!-- 94990c65&#45;0071&#45;4461&#45;8126&#45;073d45760e53 -->
<g id="node4" class="node">
<title>94990c65&#45;0071&#45;4461&#45;8126&#45;073d45760e53</title>
<ellipse fill="white" stroke="black" cx="637" cy="-99.87" rx="154.3" ry="26.74"/>
<text text-anchor="middle" x="637" y="-103.67" font-family="Helvetica,sans-Serif" font-size="14.00">▶ Create</text>
<text text-anchor="middle" x="637" y="-88.67" font-family="Helvetica,sans-Serif" font-size="14.00">src/tests/CallToAction.test.tsx</text>
</g>
<!-- af75821d&#45;a06b&#45;46fb&#45;9782&#45;214ea54801a7&#45;&gt;94990c65&#45;0071&#45;4461&#45;8126&#45;073d45760e53 -->
<g id="edge2" class="edge">
<title>af75821d&#45;a06b&#45;46fb&#45;9782&#45;214ea54801a7&#45;&gt;94990c65&#45;0071&#45;4461&#45;8126&#45;073d45760e53</title>
<path fill="none" stroke="black" d="M426.22,-99.87C441.64,-99.87 457.06,-99.87 472.48,-99.87"/>
<polygon fill="black" stroke="black" points="472.62,-103.37 482.62,-99.87 472.62,-96.37 472.62,-103.37"/>
</g>
<!-- fb73b8f0&#45;b6e1&#45;45c2&#45;bafd&#45;3093e8c78884 -->
<g id="node5" class="node">
<title>fb73b8f0&#45;b6e1&#45;45c2&#45;bafd&#45;3093e8c78884</title>
<polygon fill="yellow" stroke="black" points="434,-36 0,-36 0,0 434,0 434,-36"/>
<text text-anchor="middle" x="217" y="-14.3" font-family="Helvetica,sans-Serif" font-size="14.00">⋯ Run GitHub Actions for `src/components/CallToAction.tsx`</text>
</g>
<!-- af75821d&#45;a06b&#45;46fb&#45;9782&#45;214ea54801a7&#45;&gt;fb73b8f0&#45;b6e1&#45;45c2&#45;bafd&#45;3093e8c78884 -->
<g id="edge1" class="edge">
<title>af75821d&#45;a06b&#45;46fb&#45;9782&#45;214ea54801a7&#45;&gt;fb73b8f0&#45;b6e1&#45;45c2&#45;bafd&#45;3093e8c78884</title>
<path fill="none" stroke="black" stroke-dasharray="5,2" d="M243.9,-72.72C239.49,-63.9 234.56,-54.05 230.14,-45.23"/>
<polygon fill="black" stroke="black" points="233.19,-43.52 225.59,-36.15 226.94,-46.66 233.19,-43.52"/>
</g>
<!-- 94990c65&#45;0071&#45;4461&#45;8126&#45;073d45760e53&#45;&gt;end -->
<g id="edge5" class="edge">
<title>94990c65&#45;0071&#45;4461&#45;8126&#45;073d45760e53&#45;&gt;end</title>
<path fill="none" stroke="black" d="M791.35,-99.87C811.05,-99.87 827.92,-99.87 838.23,-99.87"/>
<polygon fill="black" stroke="black" points="838.36,-103.37 848.36,-99.87 838.36,-96.37 838.36,-103.37"/>
<text text-anchor="middle" x="819.82" y="-106.67" font-family="Helvetica,sans-Serif" font-size="14.00">Finish</text>
</g>
<!-- 6c6e0f9a&#45;9560&#45;41d5&#45;b9f9&#45;33ffe91579e2 -->
<g id="node6" class="node">
<title>6c6e0f9a&#45;9560&#45;41d5&#45;b9f9&#45;33ffe91579e2</title>
<polygon fill="white" stroke="black" points="862,-36 452,-36 452,0 862,0 862,-36"/>
<text text-anchor="middle" x="657" y="-14.3" font-family="Helvetica,sans-Serif" font-size="14.00">▶ Run GitHub Actions for `src/tests/CallToAction.test.tsx`</text>
</g>
<!-- 94990c65&#45;0071&#45;4461&#45;8126&#45;073d45760e53&#45;&gt;6c6e0f9a&#45;9560&#45;41d5&#45;b9f9&#45;33ffe91579e2 -->
<g id="edge3" class="edge">
<title>94990c65&#45;0071&#45;4461&#45;8126&#45;073d45760e53&#45;&gt;6c6e0f9a&#45;9560&#45;41d5&#45;b9f9&#45;33ffe91579e2</title>
<path fill="none" stroke="black" stroke-dasharray="5,2" d="M643.55,-72.72C645.69,-64.18 648.07,-54.68 650.22,-46.08"/>
<polygon fill="black" stroke="black" points="653.67,-46.7 652.71,-36.15 646.88,-45 653.67,-46.7"/>
</g>
</g>
</svg>
